<?xml version="1.0" encoding="UTF-8"?>
<svg version="1.1" xmlns="http://www.w3.org/2000/svg" width="256" height="256">
<path d="M0 0 C22.80461981 20.00962463 37.39168203 48.31283422 39.9921875 78.5234375 C41.77110704 108.27522228 35.11744519 140.18481788 15.03515625 163.2734375 C14.36097656 164.0159375 13.68679687 164.7584375 12.9921875 165.5234375 C12.24582031 166.4103125 11.49945313 167.2971875 10.73046875 168.2109375 C-9.32887903 191.46815232 -38.58844134 204.92726854 -68.94091797 207.3828125 C-98.66081153 209.40486054 -129.60028213 201.26269572 -152.50390625 181.61328125 C-155.42425311 179.00216803 -158.23336783 176.28938463 -161.0078125 173.5234375 C-161.85601562 172.67910156 -162.70421875 171.83476562 -163.578125 170.96484375 C-164.37992188 170.15917969 -165.18171875 169.35351562 -166.0078125 168.5234375 C-166.70261719 167.83765625 -167.39742187 167.151875 -168.11328125 166.4453125 C-189.75541469 143.86927836 -196.51714399 113.41261381 -196.22265625 83.1015625 C-195.51670001 52.42535234 -181.13954605 24.41105569 -159.6171875 3.05517578 C-115.14314279 -39.27342806 -46.40287074 -38.20703902 0 0 Z M-116.0078125 55.5234375 C-118.44556519 59.18006654 -118.35467794 62.01759179 -118.421875 66.25390625 C-118.44124115 67.00432693 -118.4606073 67.75474762 -118.4805603 68.52790833 C-118.54028709 70.92213617 -118.58671315 73.31641227 -118.6328125 75.7109375 C-118.6709987 77.3353073 -118.71005081 78.95965698 -118.75 80.58398438 C-118.84598275 84.56363855 -118.93003886 88.54338751 -119.0078125 92.5234375 C-119.78511719 92.02199219 -120.56242187 91.52054688 -121.36328125 91.00390625 C-123.84660109 89.26581086 -123.84660109 89.26581086 -126.3203125 89.8359375 C-126.8771875 90.0628125 -127.4340625 90.2896875 -128.0078125 90.5234375 C-128.42680575 94.40163532 -128.42680575 94.40163532 -126.51171875 96.375 C-125.87105469 96.96023437 -125.23039062 97.54546875 -124.5703125 98.1484375 C-121.08112077 101.37682096 -121.08112077 101.37682096 -120.0078125 103.5234375 C-119.3478125 103.5234375 -118.6878125 103.5234375 -118.0078125 103.5234375 C-117.6778125 104.5134375 -117.3478125 105.5034375 -117.0078125 106.5234375 C-116.0178125 106.8534375 -115.0278125 107.1834375 -114.0078125 107.5234375 C-111.80461317 105.45476187 -109.62108275 103.37061956 -107.4453125 101.2734375 C-106.50268555 100.39365234 -106.50268555 100.39365234 -105.54101562 99.49609375 C-104.65639648 98.63564453 -104.65639648 98.63564453 -103.75390625 97.7578125 C-103.20404053 97.23413086 -102.6541748 96.71044922 -102.08764648 96.17089844 C-100.75596958 94.53779359 -100.75596958 94.53779359 -101.33618164 92.32128906 C-101.55781982 91.72799805 -101.77945801 91.13470703 -102.0078125 90.5234375 C-103.75452838 89.72986949 -103.75452838 89.72986949 -106.0078125 89.5234375 C-107.70378751 90.47288289 -109.37452959 91.46979396 -111.0078125 92.5234375 C-110.93893755 88.30532253 -110.85097512 84.08816745 -110.74536133 79.87084961 C-110.71212249 78.43639122 -110.68408715 77.00180237 -110.66137695 75.56713867 C-110.62780979 73.50382943 -110.57549837 71.44171447 -110.51953125 69.37890625 C-110.49334717 68.13778076 -110.46716309 66.89665527 -110.44018555 65.61791992 C-110.0078125 62.5234375 -110.0078125 62.5234375 -108.60620117 60.63354492 C-105.44324748 58.43682117 -101.76349986 58.42442992 -98.0078125 58.5234375 C-95.0703125 59.5859375 -95.0703125 59.5859375 -93.0078125 61.5234375 C-91.6953125 64.7109375 -91.6953125 64.7109375 -91.0078125 67.5234375 C-88.3678125 67.5234375 -85.7278125 67.5234375 -83.0078125 67.5234375 C-82.53780816 61.78072233 -82.53780816 61.78072233 -84.7578125 56.6484375 C-89.63705959 52.04025969 -93.97148123 52.18650407 -100.3828125 52.2109375 C-101.22070312 52.19482422 -102.05859375 52.17871094 -102.921875 52.16210938 C-108.01994886 52.15810146 -111.62822045 52.62856783 -116.0078125 55.5234375 Z M-93.5859375 76.59375 C-94.13765625 77.14804688 -94.689375 77.70234375 -95.2578125 78.2734375 C-95.825 78.81226562 -96.3921875 79.35109375 -96.9765625 79.90625 C-98.80591159 81.66747703 -98.80591159 81.66747703 -101.0078125 84.5234375 C-100.73367603 86.68120377 -100.73367603 86.68120377 -100.0078125 88.5234375 C-98.26109662 89.31700551 -98.26109662 89.31700551 -96.0078125 89.5234375 C-94.31183749 88.57399211 -92.64109541 87.57708104 -91.0078125 86.5234375 C-91.07680748 90.58079969 -91.1648291 94.6372644 -91.27026367 98.69384766 C-91.30345443 100.07296417 -91.33150467 101.45221461 -91.35424805 102.83154297 C-91.38789892 104.81766056 -91.44175979 106.80340309 -91.49609375 108.7890625 C-91.52227783 109.98305664 -91.54846191 111.17705078 -91.57543945 112.40722656 C-92.037889 115.7402057 -92.63256021 117.1773556 -95.0078125 119.5234375 C-97.6015625 120.01953125 -97.6015625 120.01953125 -100.5078125 119.9609375 C-101.466875 119.95964844 -102.4259375 119.95835937 -103.4140625 119.95703125 C-106.37278158 119.4624261 -107.23363613 118.88900599 -109.0078125 116.5234375 C-110.1953125 113.8359375 -110.1953125 113.8359375 -111.0078125 111.5234375 C-113.6478125 111.5234375 -116.2878125 111.5234375 -119.0078125 111.5234375 C-119.46324637 117.21636084 -118.69027636 120.124939 -115.0078125 124.5234375 C-110.57643195 127.2620097 -106.19526869 126.89113237 -101.1328125 126.8984375 C-100.24722656 126.92292969 -99.36164063 126.94742188 -98.44921875 126.97265625 C-92.86077238 126.99764185 -89.25524868 126.53120643 -85.0078125 122.5234375 C-83.14752087 118.10862073 -82.77034136 114.35767659 -82.8125 109.59375 C-82.82216797 107.66015625 -82.82216797 107.66015625 -82.83203125 105.6875 C-82.84873787 104.34114308 -82.86566771 102.99478891 -82.8828125 101.6484375 C-82.89285586 100.27865233 -82.90197933 98.90886008 -82.91015625 97.5390625 C-82.93366838 94.20033994 -82.9665332 90.86197989 -83.0078125 87.5234375 C-80.6978125 88.1834375 -78.3878125 88.8434375 -76.0078125 89.5234375 C-75.0178125 88.2034375 -74.0278125 86.8834375 -73.0078125 85.5234375 C-75.10306608 83.34748228 -77.20808313 81.18280483 -79.3203125 79.0234375 C-79.91521484 78.40339844 -80.51011719 77.78335938 -81.12304688 77.14453125 C-81.69990234 76.55800781 -82.27675781 75.97148438 -82.87109375 75.3671875 C-83.40001221 74.82255859 -83.92893066 74.27792969 -84.47387695 73.71679688 C-88.36327091 70.69095609 -90.69210115 73.76947702 -93.5859375 76.59375 Z M-148.0078125 87.5234375 C-150.13009407 92.14791759 -152.24788735 96.77441639 -154.36157227 101.40283203 C-155.08104851 102.97663567 -155.80174175 104.54988356 -156.52368164 106.12255859 C-157.56197466 108.38493692 -158.59585527 110.64928664 -159.62890625 112.9140625 C-159.95185165 113.61525208 -160.27479706 114.31644165 -160.60752869 115.03887939 C-162.03407266 118.17663015 -163.24135825 121.16579124 -164.0078125 124.5234375 C-160.88903294 126.08282728 -158.43525479 125.8842209 -155.0078125 125.5234375 C-153.03653262 123.23838913 -153.03653262 123.23838913 -152.0078125 120.5234375 C-151.6778125 119.8634375 -151.3478125 119.2034375 -151.0078125 118.5234375 C-145.05402884 117.2291367 -139.07514595 117.42469247 -133.0078125 117.5234375 C-132.54375 118.9465625 -132.54375 118.9465625 -132.0703125 120.3984375 C-131.13386508 123.38424158 -131.13386508 123.38424158 -130.0078125 125.5234375 C-127.0378125 125.5234375 -124.0678125 125.5234375 -121.0078125 125.5234375 C-120.5128125 124.5334375 -120.5128125 124.5334375 -120.0078125 123.5234375 C-120.944896 120.8194167 -120.944896 120.8194167 -122.39453125 117.73828125 C-123.1844043 115.98161133 -123.1844043 115.98161133 -123.99023438 114.18945312 C-124.55838206 112.9465178 -125.12674286 111.70367987 -125.6953125 110.4609375 C-126.24486532 109.24577019 -126.79370165 108.03027857 -127.34179688 106.81445312 C-128.40372438 104.46331739 -129.46858186 102.11350242 -130.53662109 99.76513672 C-132.38387903 95.69479305 -134.19936363 91.61114795 -136.0078125 87.5234375 C-139.9678125 87.5234375 -143.9278125 87.5234375 -148.0078125 87.5234375 Z M-65.0078125 87.5234375 C-69.55427124 96.3933679 -73.92471928 105.33349462 -78.0703125 114.3984375 C-78.47628662 115.27209961 -78.88226074 116.14576172 -79.30053711 117.04589844 C-79.66928955 117.8609082 -80.03804199 118.67591797 -80.41796875 119.515625 C-80.74933838 120.24120605 -81.08070801 120.96678711 -81.42211914 121.71435547 C-82.26433333 123.59453356 -82.26433333 123.59453356 -81.0078125 125.5234375 C-78.0378125 125.5234375 -75.0678125 125.5234375 -72.0078125 125.5234375 C-71.3890625 123.821875 -71.3890625 123.821875 -70.7578125 122.0859375 C-69.671875 120.15625 -69.671875 120.15625 -68.0078125 118.5234375 C-62.79399894 117.07432599 -57.75216222 117.24801386 -52.4453125 118.0859375 C-49.21557639 119.99065367 -48.35152539 122.08950455 -47.0078125 125.5234375 C-44.0378125 125.5234375 -41.0678125 125.5234375 -38.0078125 125.5234375 C-38.55561688 119.84453214 -40.76120306 115.43079133 -43.2578125 110.3984375 C-46.43611771 103.86147087 -49.43905211 97.33123265 -52.1328125 90.578125 C-52.83697236 88.56977025 -52.83697236 88.56977025 -54.0078125 87.5234375 C-55.86068752 87.45117248 -57.71615128 87.4396253 -59.5703125 87.4609375 C-60.58222656 87.46996094 -61.59414062 87.47898437 -62.63671875 87.48828125 C-63.41917969 87.49988281 -64.20164063 87.51148437 -65.0078125 87.5234375 Z M-32.0078125 87.5234375 C-29.86944853 92.46175871 -26.19810912 96.33088391 -22.80859375 100.453125 C-21.0078125 103.5234375 -21.0078125 103.5234375 -20.859375 106.453125 C-22.44708161 110.69781002 -25.01767547 113.48007824 -28.0703125 116.7734375 C-32.2191791 120.62932314 -32.2191791 120.62932314 -34.0078125 125.5234375 C-29.85015278 126.14708646 -26.14358722 126.37076695 -22.0078125 125.5234375 C-18.57995099 122.65649879 -16.1791309 119.41903816 -14.0078125 115.5234375 C-14.0078125 114.8634375 -14.0078125 114.2034375 -14.0078125 113.5234375 C-13.3065625 114.2040625 -12.6053125 114.8846875 -11.8828125 115.5859375 C-11.42003906 116.03453125 -10.95726562 116.483125 -10.48046875 116.9453125 C-9.0078125 118.5234375 -9.0078125 118.5234375 -7.69140625 120.4140625 C-4.87015071 124.39597699 -4.87015071 124.39597699 -0.40234375 125.96875 C2.09962902 125.96169225 4.51053405 125.83241807 6.9921875 125.5234375 C5.5397993 121.02518376 3.0065718 117.88876453 -0.0703125 114.3984375 C-4.87969929 108.90777712 -4.87969929 108.90777712 -6.0078125 105.5234375 C-3.17352232 100.47100719 0.69162109 96.140908 4.3828125 91.6953125 C6.19064276 89.7061476 6.19064276 89.7061476 5.9921875 87.5234375 C2.16031678 86.89980574 -1.20339741 86.65414911 -5.0078125 87.5234375 C-7.42523885 89.94937592 -8.97966502 92.36386248 -10.66796875 95.3359375 C-11.11011719 96.0578125 -11.55226562 96.7796875 -12.0078125 97.5234375 C-12.6678125 97.5234375 -13.3278125 97.5234375 -14.0078125 97.5234375 C-15.01744933 95.87505083 -15.99054557 94.20420079 -16.9453125 92.5234375 C-19.57725634 88.50219036 -19.57725634 88.50219036 -23.9140625 86.859375 C-26.67264155 86.8949237 -29.28632215 87.08051864 -32.0078125 87.5234375 Z " fill="#4491C8" transform="translate(206.0078125,38.4765625)"/>
<path d="M0 0 C0.495 0.99 0.495 0.99 1 2 C0.34 2.99 -0.32 3.98 -1 5 C-1.35054727 7.33426406 -1.35054727 7.33426406 -1.37890625 9.9375 C-1.41306641 10.91589844 -1.44722656 11.89429687 -1.48242188 12.90234375 C-1.50884766 13.92457031 -1.53527344 14.94679688 -1.5625 16 C-1.79787604 23.70230531 -2.21418854 31.33244232 -3 39 C-5.66666667 38.33333333 -8.33333333 37.66666667 -11 37 C-11.42486766 40.88670845 -11.42486766 40.88670845 -9.46875 42.8515625 C-8.8190625 43.43679687 -8.169375 44.02203125 -7.5 44.625 C-6.30054834 45.7149779 -5.12574382 46.83405104 -4 48 C-4 48.66 -4 49.32 -4 50 C-3.34 50 -2.68 50 -2 50 C-0.375 51.5 -0.375 51.5 1 53 C5.55193954 49.20222795 10.00343222 45.38647683 14 41 C14 40.01 14 39.02 14 38 C10.34361463 36.6457832 8.48672608 37.48503776 5 39 C4.90092742 34.80084693 4.82843827 30.60231748 4.78027344 26.40234375 C4.76019018 24.97448879 4.73291748 23.54671575 4.69824219 22.11914062 C4.64957331 20.06359632 4.62700033 18.00914145 4.609375 15.953125 C4.58842773 14.71723633 4.56748047 13.48134766 4.54589844 12.20800781 C5.08250426 8.41714735 5.99764121 7.28881704 9 5 C13.17335756 3.63376667 16.87241359 3.5441672 20.9375 5.1875 C23.07301241 7.06416242 24.08056202 8.32527132 25 11 C25 11.99 25 12.98 25 14 C27.64 14 30.28 14 33 14 C32.71682074 12.39431334 32.42312209 10.79047953 32.125 9.1875 C31.96257812 8.29417969 31.80015625 7.40085937 31.6328125 6.48046875 C31.08811551 3.77272154 31.08811551 3.77272154 29 1 C29.99 0.67 30.98 0.34 32 0 C35.16727335 5.1468192 35.35050464 9.158256 35 15 C33.68 15.33 32.36 15.66 31 16 C31.63615234 16.72703125 31.63615234 16.72703125 32.28515625 17.46875 C36.5234375 22.3125 40.76171875 27.15625 45 32 C43.47427344 35.32635882 42.06655496 36.95563002 39 39 C37.68 38.34 36.36 37.68 35 37 C35.495 48.88 35.495 48.88 36 61 C37.010625 58.81375 38.02125 56.6275 39.0625 54.375 C42.56222969 46.84130094 46.24409826 39.40905845 50 32 C61.02491874 31.21993499 61.02491874 31.21993499 64.5 34 C68.125 41.25 68.125 41.25 69.0703125 43.328125 C69.89594772 45.1831224 69.89594772 45.1831224 72 46 C72.2165625 47.175625 72.2165625 47.175625 72.4375 48.375 C72.76078424 51.04372761 72.76078424 51.04372761 74.5625 52.5625 C75.036875 53.036875 75.51125 53.51125 76 54 C76 55.32 76 56.64 76 58 C76.60590527 59.93673291 77.27757894 61.85364472 78 63.75 C78.37125 64.73484375 78.7425 65.7196875 79.125 66.734375 C79.41375 67.48203125 79.7025 68.2296875 80 69 C82.06699437 66.9758132 84.00080904 64.89094072 85.875 62.6875 C86.390625 62.08164063 86.90625 61.47578125 87.4375 60.8515625 C89.6374834 58.24458217 91.82250844 55.62579864 94 53 C92.00174724 48.50393129 88.88624667 45.05857241 85.75 41.3125 C84 39 84 39 84 37 C83.34 37 82.68 37 82 37 C81.4375 35.0625 81.4375 35.0625 81 33 C82 32 82 32 84.94140625 31.90234375 C86.13636719 31.91394531 87.33132812 31.92554687 88.5625 31.9375 C90.35880859 31.95103516 90.35880859 31.95103516 92.19140625 31.96484375 C93.11824219 31.97644531 94.04507813 31.98804687 95 32 C91.91111478 34.05925681 91.29064073 34.2390374 87.8125 34.125 C86.554375 34.08375 85.29625 34.0425 84 34 C84.36875244 34.4532666 84.73750488 34.9065332 85.11743164 35.37353516 C86.78429989 37.44320572 88.42327213 39.53338187 90.0625 41.625 C90.64322266 42.33785156 91.22394531 43.05070312 91.82226562 43.78515625 C95.92617601 49.07895781 95.92617601 49.07895781 96.24609375 53.0703125 C94.51456371 57.1413079 91.97444724 60.01511728 89 63.25 C87.8943413 64.48303873 86.79010515 65.71735498 85.6875 66.953125 C85.19636719 67.49098633 84.70523438 68.02884766 84.19921875 68.58300781 C82.89760847 70.00774836 82.89760847 70.00774836 82 72 C86.2227686 72.30263175 89.92521635 72.2124966 94 71 C97.36433696 67.71722272 99.70996372 64.0883883 102 60 C105.6829934 61.45884803 107.02075959 63.26867645 109.125 66.5625 C111.21135581 69.39885299 112.27560995 70.78003922 115.67578125 71.8125 C118.15047414 72.03651746 120.51971939 72.12476261 123 72 C118.38456964 65.62742611 113.74698356 59.27536842 109 53 C111.03482552 48.60529697 113.37066421 44.99433239 116.4375 41.25 C117.58025391 39.83460938 117.58025391 39.83460938 118.74609375 38.390625 C120.80434942 36.20751846 122.24284002 35.08025403 125 34 C123.20893191 38.01199253 120.6085779 40.79747482 117.65625 44 C116.05502854 45.93355045 115.07074167 47.74480957 114 50 C112.375 51.75 112.375 51.75 111 53 C111.99 53.33 112.98 53.66 114 54 C115.03352304 55.64608867 116.02755648 57.31710625 117 59 C119.36541002 61.83607834 121.79142571 64.60946217 124.234375 67.37890625 C126 70 126 70 125.765625 72.33984375 C125.38664062 73.16162109 125.38664062 73.16162109 125 74 C122.91781638 74.10832169 120.83400871 74.18573541 118.75 74.25 C117.58984375 74.29640625 116.4296875 74.3428125 115.234375 74.390625 C112 74 112 74 109.71875 72.21875 C107.43409646 69.26946997 105.76818227 66.28376707 104 63 C103.01 63.495 103.01 63.495 102 64 C101.67 64.99 101.34 65.98 101 67 C100.34 67 99.68 67 99 67 C98.8453125 68.175625 98.8453125 68.175625 98.6875 69.375 C98 72 98 72 95 74 C92.1809082 74.22705078 92.1809082 74.22705078 88.80078125 74.1953125 C87.59228516 74.18886719 86.38378906 74.18242187 85.13867188 74.17578125 C83.2447168 74.15064453 83.2447168 74.15064453 81.3125 74.125 C80.03826172 74.11597656 78.76402344 74.10695313 77.45117188 74.09765625 C74.30059373 74.07405641 71.15039017 74.04113194 68 74 C65 68.25 65 68.25 65 66 C63.35 65.67 61.7 65.34 60 65 C60 64.67 60 64.34 60 64 C62.3125 63.6875 62.3125 63.6875 65 64 C66.75 66.375 66.75 66.375 68 69 C68.33 69.66 68.66 70.32 69 71 C71.12576782 71.46651207 71.12576782 71.46651207 73.5625 71.625 C74.80193359 71.73714844 74.80193359 71.73714844 76.06640625 71.8515625 C76.70449219 71.90054688 77.34257812 71.94953125 78 72 C74.50959041 62.9863049 70.77501256 54.16278495 66.61328125 45.4375 C64.99367597 41.98652506 63.48251364 38.51145225 62 35 C58.37 35 54.74 35 51 35 C48.718959 39.96513164 46.4403619 44.93137439 44.1640625 49.89868164 C43.38869907 51.58974799 42.61265846 53.28050401 41.8359375 54.97094727 C40.72219199 57.39519052 39.61085479 59.8205248 38.5 62.24609375 C38.15001953 63.00651474 37.80003906 63.76693573 37.43945312 64.55039978 C35.75030018 67.65806739 35.75030018 67.65806739 35 71 C37.97 71 40.94 71 44 71 C44.474375 70.030625 44.94875 69.06125 45.4375 68.0625 C47 65 47 65 48 64 C49.51928038 63.92820036 51.04167482 63.91607993 52.5625 63.9375 C53.38878906 63.94652344 54.21507812 63.95554688 55.06640625 63.96484375 C55.70449219 63.97644531 56.34257812 63.98804688 57 64 C56 66 56 66 54.125 66.75 C52 67 52 67 49 65 C48.71125 65.928125 48.4225 66.85625 48.125 67.8125 C47 71 47 71 45 74 C42.3984375 74.51171875 42.3984375 74.51171875 39.375 74.6875 C38.37210937 74.75324219 37.36921875 74.81898438 36.3359375 74.88671875 C35.56507812 74.92410156 34.79421875 74.96148437 34 75 C33.34 73.68 32.68 72.36 32 71 C31.06542969 71.64195312 30.13085938 72.28390625 29.16796875 72.9453125 C24.38210589 75.67492872 19.72053532 75.73932803 14.3125 75.875 C13.37599609 75.92140625 12.43949219 75.9678125 11.47460938 76.015625 C6.87896387 76.18619857 4.10454136 76.13338707 0 74 C-2.62426505 73.86041143 -5.13292747 73.81068631 -7.75 73.875 C-8.44738281 73.88402344 -9.14476562 73.89304687 -9.86328125 73.90234375 C-11.57566958 73.92580112 -13.28788004 73.96166896 -15 74 C-18 68.25 -18 68.25 -18 66 C-19.93833996 66.08715017 -21.8757429 66.19532964 -23.8125 66.3125 C-24.89144531 66.37050781 -25.97039062 66.42851562 -27.08203125 66.48828125 C-30.28073982 67.04923282 -30.92058638 67.67080696 -33 70 C-33.99 70 -34.98 70 -36 70 C-36.66 71.32 -37.32 72.64 -38 74 C-41.96 74 -45.92 74 -50 74 C-49.61999318 68.67990454 -48.71313663 65.23614291 -46.21679688 60.43505859 C-44.79644512 57.59264519 -43.53258827 54.70254009 -42.2734375 51.78515625 C-41.7990625 50.68751953 -41.3246875 49.58988281 -40.8359375 48.45898438 C-39.85083323 46.16874865 -38.86913499 43.87704527 -37.890625 41.58398438 C-37.41882812 40.49537109 -36.94703125 39.40675781 -36.4609375 38.28515625 C-35.82357666 36.79834351 -35.82357666 36.79834351 -35.17333984 35.28149414 C-34 33 -34 33 -32 32 C-30.0246012 31.85220038 -28.04321076 31.77881034 -26.0625 31.75 C-24.47115234 31.71132812 -24.47115234 31.71132812 -22.84765625 31.671875 C-20 32 -20 32 -18.24609375 33.328125 C-17.11286673 34.84856753 -16.05187729 36.42218406 -15 38 C-13.02 36.35 -11.04 34.7 -9 33 C-7.68 33.66 -6.36 34.32 -5 35 C-4.9906543 34.1529248 -4.98130859 33.30584961 -4.97167969 32.43310547 C-4.92747388 29.26805648 -4.86577473 26.10395188 -4.79248047 22.93945312 C-4.76438377 21.57401836 -4.74311323 20.20842436 -4.72900391 18.84277344 C-4.70742018 16.87145962 -4.6586454 14.90050369 -4.609375 12.9296875 C-4.58842773 11.74616699 -4.56748047 10.56264648 -4.54589844 9.34326172 C-3.90119773 5.39490239 -2.40781703 3.1502972 0 0 Z M22.421875 23.0703125 C21.87015625 23.62460938 21.3184375 24.17890625 20.75 24.75 C20.1828125 25.28882813 19.615625 25.82765625 19.03125 26.3828125 C17.20190091 28.14403953 17.20190091 28.14403953 15 31 C15.27413647 33.15776627 15.27413647 33.15776627 16 35 C17.74671588 35.79356801 17.74671588 35.79356801 20 36 C21.69597501 35.05055461 23.36671709 34.05364354 25 33 C24.93100502 37.05736219 24.8429834 41.1138269 24.73754883 45.17041016 C24.70435807 46.54952667 24.67630783 47.92877711 24.65356445 49.30810547 C24.61991358 51.29422306 24.56605271 53.27996559 24.51171875 55.265625 C24.48553467 56.45961914 24.45935059 57.65361328 24.43237305 58.88378906 C23.9699235 62.2167682 23.37525229 63.6539181 21 66 C18.40625 66.49609375 18.40625 66.49609375 15.5 66.4375 C14.5409375 66.43621094 13.581875 66.43492187 12.59375 66.43359375 C9.63503092 65.9389886 8.77417637 65.36556849 7 63 C5.8125 60.3125 5.8125 60.3125 5 58 C2.36 58 -0.28 58 -3 58 C-3.45543387 63.69292334 -2.68246386 66.6015015 1 71 C5.43138055 73.7385722 9.81254381 73.36769487 14.875 73.375 C15.76058594 73.39949219 16.64617187 73.42398438 17.55859375 73.44921875 C23.14704012 73.47420435 26.75256382 73.00776893 31 69 C32.86029163 64.58518323 33.23747114 60.83423909 33.1953125 56.0703125 C33.18564453 54.13671875 33.18564453 54.13671875 33.17578125 52.1640625 C33.15907463 50.81770558 33.14214479 49.47135141 33.125 48.125 C33.11495664 46.75521483 33.10583317 45.38542258 33.09765625 44.015625 C33.07414412 40.67690244 33.0412793 37.33854239 33 34 C35.31 34.66 37.62 35.32 40 36 C40.99 34.68 41.98 33.36 43 32 C40.90474642 29.82404478 38.79972937 27.65936733 36.6875 25.5 C36.09259766 24.87996094 35.49769531 24.25992188 34.88476562 23.62109375 C34.30791016 23.03457031 33.73105469 22.44804688 33.13671875 21.84375 C32.60780029 21.29912109 32.07888184 20.75449219 31.53393555 20.19335938 C27.64454159 17.16751859 25.31571135 20.24603952 22.421875 23.0703125 Z M-32 34 C-34.12228157 38.62448009 -36.24007485 43.25097889 -38.35375977 47.87939453 C-39.07323601 49.45319817 -39.79392925 51.02644606 -40.51586914 52.59912109 C-41.55416216 54.86149942 -42.58804277 57.12584914 -43.62109375 59.390625 C-43.94403915 60.09181458 -44.26698456 60.79300415 -44.59971619 61.51544189 C-46.02626016 64.65319265 -47.23354575 67.64235374 -48 71 C-44.88122044 72.55938978 -42.42744229 72.3607834 -39 72 C-37.02872012 69.71495163 -37.02872012 69.71495163 -36 67 C-35.67 66.34 -35.34 65.68 -35 65 C-29.04621634 63.7056992 -23.06733345 63.90125497 -17 64 C-16.5359375 65.423125 -16.5359375 65.423125 -16.0625 66.875 C-15.12605258 69.86080408 -15.12605258 69.86080408 -14 72 C-11.03 72 -8.06 72 -5 72 C-4.505 71.01 -4.505 71.01 -4 70 C-4.9370835 67.2959792 -4.9370835 67.2959792 -6.38671875 64.21484375 C-7.1765918 62.45817383 -7.1765918 62.45817383 -7.98242188 60.66601562 C-8.55056956 59.4230803 -9.11893036 58.18024237 -9.6875 56.9375 C-10.23705282 55.72233269 -10.78588915 54.50684107 -11.33398438 53.29101562 C-12.39591188 50.93987989 -13.46076936 48.59006492 -14.52880859 46.24169922 C-16.37606653 42.17135555 -18.19155113 38.08771045 -20 34 C-23.96 34 -27.92 34 -32 34 Z " fill="#38648E" transform="translate(90,92)"/>
<path d="M0 0 C1.9375 0.75 1.9375 0.75 4 2 C4.75 4.125 4.75 4.125 5 6 C3.02 7.65 1.04 9.3 -1 11 C-2.32 10.34 -3.64 9.68 -5 9 C-4.505 20.88 -4.505 20.88 -4 33 C-2.989375 30.81375 -1.97875 28.6275 -0.9375 26.375 C2.56222969 18.84130094 6.24409826 11.40905845 10 4 C21.02491874 3.21993499 21.02491874 3.21993499 24.5 6 C28.125 13.25 28.125 13.25 29.0703125 15.328125 C29.89594772 17.1831224 29.89594772 17.1831224 32 18 C32.2165625 19.175625 32.2165625 19.175625 32.4375 20.375 C32.76078424 23.04372761 32.76078424 23.04372761 34.5625 24.5625 C35.036875 25.036875 35.51125 25.51125 36 26 C36 27.32 36 28.64 36 30 C36.60590527 31.93673291 37.27757894 33.85364472 38 35.75 C38.556875 37.22726563 38.556875 37.22726563 39.125 38.734375 C39.558125 39.85585937 39.558125 39.85585937 40 41 C42.06699437 38.9758132 44.00080904 36.89094072 45.875 34.6875 C46.390625 34.08164063 46.90625 33.47578125 47.4375 32.8515625 C49.6374834 30.24458217 51.82250844 27.62579864 54 25 C52.00174724 20.50393129 48.88624667 17.05857241 45.75 13.3125 C44 11 44 11 44 9 C43.34 9 42.68 9 42 9 C41.4375 7.0625 41.4375 7.0625 41 5 C42 4 42 4 44.94140625 3.90234375 C46.73384766 3.91974609 46.73384766 3.91974609 48.5625 3.9375 C50.35880859 3.95103516 50.35880859 3.95103516 52.19140625 3.96484375 C53.11824219 3.97644531 54.04507813 3.98804687 55 4 C51.91111478 6.05925681 51.29064073 6.2390374 47.8125 6.125 C46.554375 6.08375 45.29625 6.0425 44 6 C44.36875244 6.4532666 44.73750488 6.9065332 45.11743164 7.37353516 C46.78429989 9.44320572 48.42327213 11.53338187 50.0625 13.625 C50.64322266 14.33785156 51.22394531 15.05070313 51.82226562 15.78515625 C55.92617601 21.07895781 55.92617601 21.07895781 56.24609375 25.0703125 C54.51456371 29.1413079 51.97444724 32.01511728 49 35.25 C47.8943413 36.48303873 46.79010515 37.71735498 45.6875 38.953125 C45.19636719 39.49098633 44.70523438 40.02884766 44.19921875 40.58300781 C42.89760847 42.00774836 42.89760847 42.00774836 42 44 C46.2227686 44.30263175 49.92521635 44.2124966 54 43 C57.36433696 39.71722272 59.70996372 36.0883883 62 32 C65.6829934 33.45884803 67.02075959 35.26867645 69.125 38.5625 C71.21135581 41.39885299 72.27560995 42.78003922 75.67578125 43.8125 C78.15047414 44.03651746 80.51971939 44.12476261 83 44 C78.38456964 37.62742611 73.74698356 31.27536842 69 25 C71.03482552 20.60529697 73.37066421 16.99433239 76.4375 13.25 C77.19933594 12.30640625 77.96117187 11.3628125 78.74609375 10.390625 C80.80434942 8.20751846 82.24284002 7.08025403 85 6 C83.20893191 10.01199253 80.6085779 12.79747482 77.65625 16 C76.05502854 17.93355045 75.07074167 19.74480957 74 22 C72.375 23.75 72.375 23.75 71 25 C71.99 25.33 72.98 25.66 74 26 C75.03352304 27.64608867 76.02755648 29.31710625 77 31 C79.36541002 33.83607834 81.79142571 36.60946217 84.234375 39.37890625 C86 42 86 42 85.765625 44.33984375 C85.38664062 45.16162109 85.38664062 45.16162109 85 46 C82.91781638 46.10832169 80.83400871 46.18573541 78.75 46.25 C77.58984375 46.29640625 76.4296875 46.3428125 75.234375 46.390625 C72 46 72 46 69.71875 44.21875 C67.43409646 41.26946997 65.76818227 38.28376707 64 35 C63.01 35.495 63.01 35.495 62 36 C61.67 36.99 61.34 37.98 61 39 C60.34 39 59.68 39 59 39 C58.896875 39.78375 58.79375 40.5675 58.6875 41.375 C58 44 58 44 55 46 C52.1809082 46.22705078 52.1809082 46.22705078 48.80078125 46.1953125 C47.59228516 46.18886719 46.38378906 46.18242187 45.13867188 46.17578125 C43.87603516 46.15902344 42.61339844 46.14226562 41.3125 46.125 C39.40114258 46.11146484 39.40114258 46.11146484 37.45117188 46.09765625 C34.30059373 46.07405641 31.15039017 46.04113194 28 46 C25 40.25 25 40.25 25 38 C23.35 37.67 21.7 37.34 20 37 C20 36.67 20 36.34 20 36 C22.3125 35.6875 22.3125 35.6875 25 36 C26.75 38.375 26.75 38.375 28 41 C28.33 41.66 28.66 42.32 29 43 C31.12576782 43.46651207 31.12576782 43.46651207 33.5625 43.625 C34.38878906 43.69976562 35.21507812 43.77453125 36.06640625 43.8515625 C36.70449219 43.90054688 37.34257812 43.94953125 38 44 C34.50959041 34.9863049 30.77501256 26.16278495 26.61328125 17.4375 C24.99367597 13.98652506 23.48251364 10.51145225 22 7 C18.37 7 14.74 7 11 7 C8.718959 11.96513164 6.4403619 16.93137439 4.1640625 21.89868164 C3.38869907 23.58974799 2.61265846 25.28050401 1.8359375 26.97094727 C0.72219199 29.39519052 -0.38914521 31.8205248 -1.5 34.24609375 C-1.84998047 35.00651474 -2.19996094 35.76693573 -2.56054688 36.55039978 C-4.24969982 39.65806739 -4.24969982 39.65806739 -5 43 C-2.03 43 0.94 43 4 43 C4.474375 42.030625 4.94875 41.06125 5.4375 40.0625 C7 37 7 37 8 36 C9.51928038 35.92820036 11.04167482 35.91607993 12.5625 35.9375 C13.38878906 35.94652344 14.21507812 35.95554688 15.06640625 35.96484375 C15.70449219 35.97644531 16.34257812 35.98804688 17 36 C16 38 16 38 14.125 38.75 C12 39 12 39 9 37 C8.71125 37.928125 8.4225 38.85625 8.125 39.8125 C7 43 7 43 5 46 C2.3984375 46.51171875 2.3984375 46.51171875 -0.625 46.6875 C-2.12933594 46.78611328 -2.12933594 46.78611328 -3.6640625 46.88671875 C-4.43492188 46.92410156 -5.20578125 46.96148437 -6 47 C-6.99 45.02 -6.99 45.02 -8 43 C-8.93457031 43.64195312 -9.86914062 44.28390625 -10.83203125 44.9453125 C-15.61789411 47.67492872 -20.27946468 47.73932803 -25.6875 47.875 C-26.62400391 47.92140625 -27.56050781 47.9678125 -28.52539062 48.015625 C-33.12103613 48.18619857 -35.89545864 48.13338707 -40 46 C-42.62426505 45.86041143 -45.13292747 45.81068631 -47.75 45.875 C-48.79607422 45.88853516 -48.79607422 45.88853516 -49.86328125 45.90234375 C-51.57566958 45.92580112 -53.28788004 45.96166896 -55 46 C-58 40.25 -58 40.25 -58 38 C-59.93833996 38.08715017 -61.8757429 38.19532964 -63.8125 38.3125 C-65.43091797 38.39951172 -65.43091797 38.39951172 -67.08203125 38.48828125 C-70.28073982 39.04923282 -70.92058638 39.67080696 -73 42 C-73.99 42 -74.98 42 -76 42 C-76.66 43.32 -77.32 44.64 -78 46 C-81.96 46 -85.92 46 -90 46 C-89.61999318 40.67990454 -88.71313663 37.23614291 -86.21679688 32.43505859 C-84.79644512 29.59264519 -83.53258827 26.70254009 -82.2734375 23.78515625 C-81.561875 22.13870117 -81.561875 22.13870117 -80.8359375 20.45898438 C-79.85083323 18.16874865 -78.86913499 15.87704527 -77.890625 13.58398438 C-77.18292969 11.95106445 -77.18292969 11.95106445 -76.4609375 10.28515625 C-76.03603027 9.29394775 -75.61112305 8.30273926 -75.17333984 7.28149414 C-74 5 -74 5 -72 4 C-69.95944995 3.92934383 -67.91665743 3.91578024 -65.875 3.9375 C-64.77929688 3.94652344 -63.68359375 3.95554687 -62.5546875 3.96484375 C-61.71164063 3.97644531 -60.86859375 3.98804687 -60 4 C-60 4.66 -60 5.32 -60 6 C-63.96 6 -67.92 6 -72 6 C-72.37769531 7.23105469 -72.75539063 8.46210938 -73.14453125 9.73046875 C-75.54675285 16.94278252 -78.96629615 23.70730504 -82.23632812 30.55664062 C-82.71908203 31.58595703 -83.20183594 32.61527344 -83.69921875 33.67578125 C-84.14096436 34.60302002 -84.58270996 35.53025879 -85.0378418 36.4855957 C-86.23825763 39.1739366 -86.23825763 39.1739366 -86 43 C-83.69 43 -81.38 43 -79 43 C-78.484375 41.865625 -77.96875 40.73125 -77.4375 39.5625 C-75.71206251 36.59690432 -75.35547686 36.11607408 -71.9375 35 C-70.638125 35 -69.33875 35 -68 35 C-66.61748047 34.98646484 -66.61748047 34.98646484 -65.20703125 34.97265625 C-62.32521127 35.06021485 -59.78488038 35.24830871 -57 36 C-54.88490137 38.84027531 -54 40.46723228 -54 44 C-49.545 43.505 -49.545 43.505 -45 43 C-45.66 41.02 -46.32 39.04 -47 37 C-46.34 37 -45.68 37 -45 37 C-45 37.66 -45 38.32 -45 39 C-44.34 39 -43.68 39 -43 39 C-42.505 38.01 -42.505 38.01 -42 37 C-41.401875 37.969375 -40.80375 38.93875 -40.1875 39.9375 C-38.28872491 43.23052042 -38.28872491 43.23052042 -35 44 C-31.71272075 44.25257326 -28.42098276 44.23124619 -25.125 44.25 C-24.22652344 44.270625 -23.32804687 44.29125 -22.40234375 44.3125 C-15.64200877 44.40822851 -15.64200877 44.40822851 -10 41 C-8.16542239 36.57462512 -7.76250865 32.83652201 -7.8046875 28.0703125 C-7.81113281 26.78125 -7.81757812 25.4921875 -7.82421875 24.1640625 C-7.84092537 22.81770558 -7.85785521 21.47135141 -7.875 20.125 C-7.88504336 18.75521483 -7.89416683 17.38542258 -7.90234375 16.015625 C-7.92585588 12.67690244 -7.9587207 9.33854239 -8 6 C-4.37673261 4.7922442 -3.35853631 5.45688872 0 7 C0.66 6.01 1.32 5.02 2 4 C1.01 2.02 1.01 2.02 0 0 Z " fill="#416D98" transform="translate(130,120)"/>
<path d="M0 0 C0.66 0 1.32 0 2 0 C15.1764642 27.54097026 15.36104953 60.4929576 5.68066406 89.11254883 C0.94706332 102.16953892 -5.63854458 114.68986936 -15 125 C-15.74636719 125.886875 -16.49273437 126.77375 -17.26171875 127.6875 C-37.32106653 150.94471482 -66.58062884 164.40383104 -96.93310547 166.859375 C-126.65299903 168.88142304 -157.59246963 160.73925822 -180.49609375 141.08984375 C-183.41644061 138.47873053 -186.22555533 135.76594713 -189 133 C-189.84820312 132.15566406 -190.69640625 131.31132812 -191.5703125 130.44140625 C-192.37210938 129.63574219 -193.17390625 128.83007812 -194 128 C-194.69480469 127.31421875 -195.38960937 126.6284375 -196.10546875 125.921875 C-215.70399164 105.47763724 -224.17150306 77.02068984 -224.1875 49.25 C-224.19974609 48.1465625 -224.21199219 47.043125 -224.22460938 45.90625 C-224.23780188 38.41290693 -223.46620187 31.34679283 -222 24 C-221.34 24 -220.68 24 -220 24 C-220.06928711 24.63599121 -220.13857422 25.27198242 -220.20996094 25.92724609 C-223.98086017 63.32087856 -217.87369797 94.1753695 -194.40625 124.02734375 C-191.44172115 127.63050781 -188.22298818 130.68647404 -184.61328125 133.640625 C-183 135 -183 135 -181.56640625 136.44921875 C-179.69033037 138.30658066 -177.69634491 139.92592544 -175.625 141.5625 C-174.87476563 142.16191406 -174.12453125 142.76132813 -173.3515625 143.37890625 C-171.05894422 145.08974654 -171.05894422 145.08974654 -168.3984375 146.02734375 C-166 147 -166 147 -164.6015625 148.4140625 C-150.34549858 162.53104287 -120.86690976 164.36715825 -102.44140625 164.30053711 C-70.48627772 163.76842886 -43.16372592 150.09548996 -20.69140625 127.69921875 C1.60400924 104.09003528 9.75745386 73.91007007 9.31640625 42.08984375 C8.89322977 28.87221849 6.13974266 16.49011986 0.953125 4.3359375 C0 2 0 2 0 0 Z " fill="#3C5F83" transform="translate(234,79)"/>
<path d="M0 0 C0.08706286 4.41654255 0.14041378 8.83286457 0.1875 13.25 C0.21263672 14.50425781 0.23777344 15.75851563 0.26367188 17.05078125 C0.27333984 18.25605469 0.28300781 19.46132812 0.29296875 20.703125 C0.3086792 21.81333008 0.32438965 22.92353516 0.34057617 24.06738281 C-0.0347984 27.29964043 -0.82241911 28.63907032 -3 31 C-4.6266848 30.71788123 -6.25132896 30.42397625 -7.875 30.125 C-8.77992187 29.96257812 -9.68484375 29.80015625 -10.6171875 29.6328125 C-13 29 -13 29 -15 27 C-15.125 24.375 -15.125 24.375 -15 22 C-15.66 22 -16.32 22 -17 22 C-17 21.34 -17 20.68 -17 20 C-18.32 19.67 -19.64 19.34 -21 19 C-19.625 17.5 -19.625 17.5 -18 16 C-17.34 16 -16.68 16 -16 16 C-15.79375 15.443125 -15.5875 14.88625 -15.375 14.3125 C-13.42316968 11.02987629 -11.05769006 9.29326754 -8 7 C-7.34 7 -6.68 7 -6 7 C-5.9175 6.401875 -5.835 5.80375 -5.75 5.1875 C-4.89740169 2.70075492 -2.94409509 0 0 0 Z " fill="#4189BC" transform="translate(113,128)"/>
<path d="M0 0 C2.53125 -0.328125 2.53125 -0.328125 5.5 -0.25 C6.96953125 -0.22679688 6.96953125 -0.22679688 8.46875 -0.203125 C11 0 11 0 13 1 C13 2.98 13 4.96 13 7 C13.66 7 14.32 7 15 7 C15 7.66 15 8.32 15 9 C15.99 9 16.98 9 18 9 C16.48391249 12.85913184 14.19933595 14.45507368 11 17 C6.95659959 21.16596498 6.95659959 21.16596498 4.13671875 26.15625 C3 28 3 28 0.42895508 28.61523438 C-0.3726001 28.74220703 -1.17415527 28.86917969 -2 29 C-2.05794812 24.72922344 -2.09357874 20.45854764 -2.125 16.1875 C-2.14175781 14.97255859 -2.15851563 13.75761719 -2.17578125 12.50585938 C-2.18222656 11.34248047 -2.18867187 10.17910156 -2.1953125 8.98046875 C-2.20578613 7.90692139 -2.21625977 6.83337402 -2.22705078 5.72729492 C-2 3 -2 3 0 0 Z " fill="#4088BB" transform="translate(99,99)"/>
<path d="M0 0 C2 1 4 2 6 3 C6.33 2.34 6.66 1.68 7 1 C7.33 1.33 7.66 1.66 8 2 C9.66617115 2.04063832 11.33388095 2.042721 13 2 C13.33 2.66 13.66 3.32 14 4 C13.05640625 3.81244141 13.05640625 3.81244141 12.09375 3.62109375 C8.8049874 3.38830483 7.00522489 3.57466477 4 5 C0.66052273 9.2823885 -1.13980173 14.66781845 -3.09179688 19.68457031 C-4.21817398 22.55622636 -5.44829502 25.37568685 -6.68652344 28.20043945 C-7.81747632 30.78920825 -8.90965855 33.39391874 -10 36 C-10.33 36 -10.66 36 -11 36 C-11 27.09 -11 18.18 -11 9 C-8.525 9.495 -8.525 9.495 -6 10 C-3.20602598 7.98212988 -2.16935852 6.66203783 -1.3125 3.3125 C-1.209375 2.549375 -1.10625 1.78625 -1 1 C-0.67 0.67 -0.34 0.34 0 0 Z " fill="#4389BC" transform="translate(136,120)"/>
<path d="M0 0 C0.33 0.66 0.66 1.32 1 2 C0.01 3.485 0.01 3.485 -1 5 C-1.35054727 7.33426406 -1.35054727 7.33426406 -1.37890625 9.9375 C-1.41306641 10.91589844 -1.44722656 11.89429687 -1.48242188 12.90234375 C-1.50884766 13.92457031 -1.53527344 14.94679688 -1.5625 16 C-1.79787604 23.70230531 -2.21418854 31.33244232 -3 39 C-5.66666667 38.33333333 -8.33333333 37.66666667 -11 37 C-11 41.37919014 -10.80974082 41.67217053 -8 44.625 C-5 47.80555556 -5 47.80555556 -5 50 C-3.900237 51.56266521 -3.900237 51.56266521 -2.5 53.125 C-1.675 54.07375 -0.85 55.0225 0 56 C-1.98 56.495 -1.98 56.495 -4 57 C-4.33 58.98 -4.66 60.96 -5 63 C-8.31844124 59.12321786 -10.22625079 54.60667374 -12.3125 50 C-12.69728516 49.19304687 -13.08207031 48.38609375 -13.47851562 47.5546875 C-13.83236328 46.77351563 -14.18621094 45.99234375 -14.55078125 45.1875 C-15.04058472 44.12595703 -15.04058472 44.12595703 -15.5402832 43.04296875 C-16 41 -16 41 -15.25463867 38.87890625 C-13.56746031 36.35224256 -11.4301396 34.79062918 -9 33 C-7.68 33.66 -6.36 34.32 -5 35 C-4.9906543 34.1529248 -4.98130859 33.30584961 -4.97167969 32.43310547 C-4.92747388 29.26805648 -4.86577473 26.10395188 -4.79248047 22.93945312 C-4.76438377 21.57401836 -4.74311323 20.20842436 -4.72900391 18.84277344 C-4.70742018 16.87145962 -4.6586454 14.90050369 -4.609375 12.9296875 C-4.5779541 11.15440674 -4.5779541 11.15440674 -4.54589844 9.34326172 C-3.90119773 5.39490239 -2.40781703 3.1502972 0 0 Z " fill="#45709B" transform="translate(90,92)"/>
<path d="M0 0 C0.66 0 1.32 0 2 0 C1.93071289 0.63599121 1.86142578 1.27198242 1.79003906 1.92724609 C-1.64791272 36.01924836 2.43766085 67.24455136 23.8125 94.9765625 C24.204375 95.64429688 24.59625 96.31203125 25 97 C24.67 97.99 24.34 98.98 24 100 C6.79843721 77.302873 -2.17104293 53.81947001 -2.1875 25.25 C-2.19974609 24.1465625 -2.21199219 23.043125 -2.22460938 21.90625 C-2.23780188 14.41290693 -1.46620187 7.34679283 0 0 Z " fill="#4A769F" transform="translate(12,103)"/>
<path d="M0 0 C1.09570312 0.00902344 2.19140625 0.01804687 3.3203125 0.02734375 C4.16335937 0.03894531 5.00640625 0.05054687 5.875 0.0625 C5.875 0.7225 5.875 1.3825 5.875 2.0625 C1.915 2.0625 -2.045 2.0625 -6.125 2.0625 C-6.50269531 3.29355469 -6.88039063 4.52460938 -7.26953125 5.79296875 C-9.67175285 13.00528252 -13.09129615 19.76980504 -16.36132812 26.61914062 C-16.84408203 27.64845703 -17.32683594 28.67777344 -17.82421875 29.73828125 C-18.26596436 30.66552002 -18.70770996 31.59275879 -19.1628418 32.5480957 C-20.36325763 35.2364366 -20.36325763 35.2364366 -20.125 39.0625 C-17.815 39.0625 -15.505 39.0625 -13.125 39.0625 C-12.609375 37.928125 -12.09375 36.79375 -11.5625 35.625 C-9.77689738 32.51905742 -9.42660898 32.1592425 -5.8125 31 C-1.76733004 31.0685622 1.07631884 31.74459021 4.875 33.0625 C4.875 33.3925 4.875 33.7225 4.875 34.0625 C4.26011719 34.09988281 3.64523438 34.13726562 3.01171875 34.17578125 C1.79935547 34.27439453 1.79935547 34.27439453 0.5625 34.375 C-0.23800781 34.43300781 -1.03851563 34.49101562 -1.86328125 34.55078125 C-4.52437691 35.15285989 -5.28065927 36.13549974 -7.125 38.0625 C-8.115 38.0625 -9.105 38.0625 -10.125 38.0625 C-10.785 39.3825 -11.445 40.7025 -12.125 42.0625 C-16.085 42.0625 -20.045 42.0625 -24.125 42.0625 C-23.74499318 36.74240454 -22.83813663 33.29864291 -20.34179688 28.49755859 C-18.92144512 25.65514519 -17.65758827 22.76504009 -16.3984375 19.84765625 C-15.686875 18.20120117 -15.686875 18.20120117 -14.9609375 16.52148438 C-13.97583323 14.23124865 -12.99413499 11.93954527 -12.015625 9.64648438 C-11.30792969 8.01356445 -11.30792969 8.01356445 -10.5859375 6.34765625 C-10.16103027 5.35644775 -9.73612305 4.36523926 -9.29833984 3.34399414 C-7.15964269 -0.81458365 -4.3049949 -0.04579782 0 0 Z " fill="#4281A9" transform="translate(64.125,123.9375)"/>
<path d="M0 0 C0 0.66 0 1.32 0 2 C-2.76521736 1.45852208 -5.51223025 0.8814623 -8.2578125 0.24609375 C-32.83531572 -4.89283874 -56.84623676 -2.76507077 -80.12890625 6.109375 C-83 7 -83 7 -85 6 C-64.81146382 -11.19023873 -23.0343903 -8.00288485 0 0 Z " fill="#5081A9" transform="translate(164,15)"/>
<path d="M0 0 C5 5 5 5 7.375 7.4375 C11.88187477 11.83706822 16.71033082 15.81499909 21.625 19.75 C22.33914062 20.32234375 23.05328125 20.8946875 23.7890625 21.484375 C25.96608046 23.09848939 25.96608046 23.09848939 28.5859375 24.015625 C31 25 31 25 32.3984375 26.4140625 C42.46372451 36.38115159 63.23548006 40.03147115 76.65625 41.54296875 C77.4296875 41.69378906 78.203125 41.84460938 79 42 C79.33 42.66 79.66 43.32 80 44 C56.10744821 44.63784343 30.6138067 32.15898077 13.3125 16.1875 C10.59675983 13.58699633 7.93802503 10.93793599 5.28125 8.27734375 C3.94704414 6.94542249 2.59119005 5.63348074 1.1875 4.375 C0 3 0 3 0 0 Z " fill="#385E87" transform="translate(37,201)"/>
<path d="M0 0 C0.99 0 1.98 0 3 0 C3.67305018 1.60149886 4.33822227 3.20631029 5 4.8125 C5.37125 5.70582031 5.7425 6.59914062 6.125 7.51953125 C7 10 7 10 7 13 C5.54263913 13.19491452 4.08405407 13.38069358 2.625 13.5625 C1.81289062 13.66691406 1.00078125 13.77132812 0.1640625 13.87890625 C-2 14 -2 14 -4 13 C-3.40895235 8.15340923 -2.02055843 4.39251833 0 0 Z " fill="#35608A" transform="translate(145,136)"/>
<path d="M0 0 C3.90285767 1.58667578 6.33520982 4.13350481 9.25 7.125 C10.14203125 8.03507813 11.0340625 8.94515625 11.953125 9.8828125 C12.62859375 10.58148438 13.3040625 11.28015625 14 12 C13.35546875 12.26554688 12.7109375 12.53109375 12.046875 12.8046875 C11.03367187 13.39636719 11.03367187 13.39636719 10 14 C9.18415432 17.05908413 9.18415432 17.05908413 9 20 C6.1698087 16.61736896 4.4967219 12.90881541 2.8125 8.875 C2.53986328 8.24207031 2.26722656 7.60914063 1.98632812 6.95703125 C0 2.2675047 0 2.2675047 0 0 Z " fill="#3F85B9" transform="translate(76,135)"/>
<path d="M0 0 C1.09570312 0.00902344 2.19140625 0.01804687 3.3203125 0.02734375 C4.16335937 0.03894531 5.00640625 0.05054687 5.875 0.0625 C5.875 0.7225 5.875 1.3825 5.875 2.0625 C1.915 2.0625 -2.045 2.0625 -6.125 2.0625 C-6.51558594 3.320625 -6.90617187 4.57875 -7.30859375 5.875 C-9.1784779 11.47916248 -11.63201099 16.74321428 -14.1875 22.0625 C-14.85749023 23.49142578 -14.85749023 23.49142578 -15.54101562 24.94921875 C-15.97220703 25.85285156 -16.40339844 26.75648438 -16.84765625 27.6875 C-17.23703369 28.50476563 -17.62641113 29.32203125 -18.02758789 30.1640625 C-19.125 32.0625 -19.125 32.0625 -21.125 33.0625 C-19.23732498 26.03366456 -16.72015736 19.64322175 -13.5 13.125 C-12.69391193 11.47073382 -11.88916409 9.81581371 -11.0859375 8.16015625 C-10.73321777 7.44351807 -10.38049805 6.72687988 -10.01708984 5.98852539 C-9.01536175 3.91987321 -9.01536175 3.91987321 -8.125 1.0625 C-5.36047967 -0.31976016 -3.0788637 -0.03275387 0 0 Z " fill="#457499" transform="translate(64.125,123.9375)"/>
<path d="M0 0 C0.66 0 1.32 0 2 0 C2.67595315 1.41225926 3.34040059 2.83002905 4 4.25 C4.37125 5.03890625 4.7425 5.8278125 5.125 6.640625 C6 9 6 9 6 13 C2.7 13 -0.6 13 -4 13 C-3.50269348 8.02693484 -2.44697666 4.36200187 0 0 Z " fill="#2F5585" transform="translate(63,136)"/>
<path d="M0 0 C2.91365213 3.80041582 4.13131548 5.80791607 4.0625 10.625 C4.05347656 11.44226563 4.04445313 12.25953125 4.03515625 13.1015625 C4.02355469 13.72804688 4.01195313 14.35453125 4 15 C2.20841511 15.02696365 0.41671527 15.04637917 -1.375 15.0625 C-2.37273437 15.07410156 -3.37046875 15.08570312 -4.3984375 15.09765625 C-7 15 -7 15 -9 14 C-9 12.02 -9 10.04 -9 8 C-10.546875 8.061875 -10.546875 8.061875 -12.125 8.125 C-15.86829627 8.00424851 -18.53734547 7.35127982 -22 6 C-18.74139091 3.82759394 -18.17949197 3.76435842 -14.5 4.1875 C-13.7265625 4.26355469 -12.953125 4.33960937 -12.15625 4.41796875 C-9.59061955 5.11050306 -8.60531562 5.90265266 -7 8 C-6.3125 11.1875 -6.3125 11.1875 -6 14 C-3.36 14 -0.72 14 2 14 C1.71682074 12.39431334 1.42312209 10.79047953 1.125 9.1875 C0.96257812 8.29417969 0.80015625 7.40085937 0.6328125 6.48046875 C0.08811551 3.77272154 0.08811551 3.77272154 -2 1 C-1.34 0.67 -0.68 0.34 0 0 Z " fill="#46709C" transform="translate(121,92)"/>
<path d="M0 0 C1.70884005 1.62339805 3.37446717 3.29319053 5 5 C5 5.66 5 6.32 5 7 C4.01 7.495 4.01 7.495 3 8 C2.34444881 10.52733235 2.34444881 10.52733235 2 13 C0.68 12.67 -0.64 12.34 -2 12 C-2.33 12.66 -2.66 13.32 -3 14 C-4.32 13.67 -5.64 13.34 -7 13 C-7 12.01 -7 11.02 -7 10 C-6.34 10 -5.68 10 -5 10 C-4.67 8.35 -4.34 6.7 -4 5 C-3.34 5 -2.68 5 -2 5 C-1.855625 4.360625 -1.71125 3.72125 -1.5625 3.0625 C-1 1 -1 1 0 0 Z " fill="#428ABF" transform="translate(193,154)"/>
<path d="M0 0 C2.24087517 2.24087517 2.66556265 2.90645453 3 6 C2.411438 8.354248 1.75407101 10.69342986 1 13 C1.804375 13.61875 2.60875 14.2375 3.4375 14.875 C6 17 6 17 7 19 C6.34 19.99 5.68 20.98 5 22 C3.32737283 20.38113585 1.66204463 18.7547271 0 17.125 C-0.928125 16.22007813 -1.85625 15.31515625 -2.8125 14.3828125 C-5 12 -5 12 -5 10 C-4.01 9.67 -3.02 9.34 -2 9 C-1.7834375 7.0509375 -1.7834375 7.0509375 -1.5625 5.0625 C-1.125 1.125 -1.125 1.125 0 0 Z " fill="#4087BD" transform="translate(126,98)"/>
<path d="M0 0 C0.66 0 1.32 0 2 0 C2 1.32 2 2.64 2 4 C1.195625 4.226875 0.39125 4.45375 -0.4375 4.6875 C-1.283125 5.120625 -2.12875 5.55375 -3 6 C-3.89386164 8.54775306 -3.89386164 8.54775306 -4 11 C-5.41538717 11.33872513 -6.83237963 11.67074624 -8.25 12 C-9.03890625 12.185625 -9.8278125 12.37125 -10.640625 12.5625 C-13 13 -13 13 -17 13 C-17 12.34 -17 11.68 -17 11 C-16.2575 11 -15.515 11 -14.75 11 C-11.43169286 9.79334286 -11.19940189 9.01007481 -9.6875 5.9375 C-9.10733879 4.63271056 -8.53914658 3.32226452 -8 2 C-7.401875 2.185625 -6.80375 2.37125 -6.1875 2.5625 C-3.83591238 3.22093687 -3.83591238 3.22093687 -1 2 C-0.67 1.34 -0.34 0.68 0 0 Z " fill="#428BBE" transform="translate(147,155)"/>
<path d="M0 0 C9.99784436 7.58577702 16.51391411 18.45034223 23 29 C23.60070312 29.92039062 24.20140625 30.84078125 24.8203125 31.7890625 C25.20960938 32.51867187 25.59890625 33.24828125 26 34 C25.67 34.66 25.34 35.32 25 36 C22.12940872 33.45996166 20.49118117 30.57703792 18.625 27.25 C16.57807747 23.66028023 14.52205091 20.19644481 12.0625 16.875 C10 14 10 14 10 12 C9.34 12 8.68 12 8 12 C6.0546875 9.8828125 6.0546875 9.8828125 3.875 7.125 C3.15054688 6.22007813 2.42609375 5.31515625 1.6796875 4.3828125 C0 2 0 2 0 0 Z " fill="#436A9F" transform="translate(209,42)"/>
<path d="M0 0 C4.29 0 8.58 0 13 0 C9.68629 2.20914 8.6553979 2.22481553 4.8125 2.125 C3.91144531 2.10695313 3.01039063 2.08890625 2.08203125 2.0703125 C1.39496094 2.04710938 0.70789063 2.02390625 0 2 C-0.226875 2.70125 -0.45375 3.4025 -0.6875 4.125 C-2.31656867 7.69343613 -4.40640731 10.06514511 -7 13 C-10.26782914 11.91072362 -10.81937333 11.31652071 -12.75 8.625 C-13.19859375 8.01914063 -13.6471875 7.41328125 -14.109375 6.7890625 C-15 5 -15 5 -14 2 C-10 6.75 -10 6.75 -10 9 C-8.05000871 8.80528889 -8.05000871 8.80528889 -6 8 C-4.71563266 6.0162233 -4.71563266 6.0162233 -4 4 C-3.34 4 -2.68 4 -2 4 C-1.34 2.68 -0.68 1.36 0 0 Z " fill="#436994" transform="translate(201,124)"/>
<path d="M0 0 C0.66 0.33 1.32 0.66 2 1 C1.13375 1.93972656 1.13375 1.93972656 0.25 2.8984375 C-0.4925 3.71570312 -1.235 4.53296875 -2 5.375 C-2.7425 6.18710937 -3.485 6.99921875 -4.25 7.8359375 C-6.20959813 9.79533992 -6.20959813 9.79533992 -6 12 C-6.5775 12.515625 -7.155 13.03125 -7.75 13.5625 C-10.86717602 16.93944068 -12.30157695 20.77201072 -14 25 C-14.66 25 -15.32 25 -16 25 C-16.99 27.475 -16.99 27.475 -18 30 C-18.66 30 -19.32 30 -20 30 C-16.58918258 18.67476156 -8.47019421 8.15648331 0 0 Z " fill="#487EAB" transform="translate(41,48)"/>
<path d="M0 0 C4.56740233 -0.10056098 9.13412954 -0.17224436 13.70239258 -0.21972656 C15.24905653 -0.23956584 16.79564839 -0.2666464 18.34204102 -0.30175781 C29.27320819 -0.54333057 38.56623971 0.5903121 49 4 C49 4.66 49 5.32 49 6 C46.24023769 5.45434357 43.48949256 4.88737006 40.7421875 4.28125 C27.24344593 1.5542315 13.73917836 1.27487469 0 1 C0 0.67 0 0.34 0 0 Z " fill="#427DA7" transform="translate(115,11)"/>
<path d="M0 0 C1.32 0.33 2.64 0.66 4 1 C-6.48606606 7.02391029 -18.95448762 10.42640417 -31 11 C-27.91924138 7.91924138 -24.25439457 8.19900949 -20.04296875 7.66015625 C-16.8107207 6.95893684 -14.73198892 5.82609381 -12 4 C-11.34 3.67 -10.68 3.34 -10 3 C-10 2.34 -10 1.68 -10 1 C-8.35 1 -6.7 1 -5 1 C-5 1.66 -5 2.32 -5 3 C-3.35 2.67 -1.7 2.34 0 2 C0 1.34 0 0.68 0 0 Z " fill="#4887B8" transform="translate(174,232)"/>
<path d="M0 0 C3.61497739 1.47158371 5.40591511 3.41462331 7.75 6.5 C8.36359375 7.2940625 8.9771875 8.088125 9.609375 8.90625 C11 11 11 11 11 13 C14.96 13 18.92 13 23 13 C23 13.33 23 13.66 23 14 C20.91781638 14.10832169 18.83400871 14.18573541 16.75 14.25 C15.00976562 14.31960937 15.00976562 14.31960937 13.234375 14.390625 C10 14 10 14 7.71875 12.21875 C5.43409646 9.26946997 3.76818227 6.28376707 2 3 C1.01 3.495 1.01 3.495 0 4 C-0.33 4.99 -0.66 5.98 -1 7 C-1.66 7 -2.32 7 -3 7 C-3.66 8.32 -4.32 9.64 -5 11 C-5.33 10.01 -5.66 9.02 -6 8 C-4.78515625 5.95703125 -4.78515625 5.95703125 -3.0625 3.8125 C-2.49660156 3.09707031 -1.93070313 2.38164062 -1.34765625 1.64453125 C-0.90292969 1.10183594 -0.45820313 0.55914062 0 0 Z " fill="#396699" transform="translate(192,152)"/>
<path d="M0 0 C0.66 0.33 1.32 0.66 2 1 C-0.64 4.3 -3.28 7.6 -6 11 C-6.66 10.67 -7.32 10.34 -8 10 C-8.73075648 7.6859378 -9.40138258 5.35171131 -10 3 C-9.34 3 -8.68 3 -8 3 C-7.67 2.34 -7.34 1.68 -7 1 C-5.5459375 1.0309375 -5.5459375 1.0309375 -4.0625 1.0625 C-1.12534105 1.35618499 -1.12534105 1.35618499 0 0 Z " fill="#438ABD" transform="translate(177,151)"/>
<path d="M0 0 C1.65 0 3.3 0 5 0 C5.33 1.65 5.66 3.3 6 5 C5.01 5.495 5.01 5.495 4 6 C4.33 6.66 4.66 7.32 5 8 C3.74057614 9.19959375 2.46704714 10.38439443 1.1875 11.5625 C0.12595703 12.55443359 0.12595703 12.55443359 -0.95703125 13.56640625 C-1.63121094 14.03949219 -2.30539063 14.51257813 -3 15 C-3.99 14.67 -4.98 14.34 -6 14 C-5.59007812 13.45730469 -5.18015625 12.91460937 -4.7578125 12.35546875 C-4.21898437 11.64003906 -3.68015625 10.92460937 -3.125 10.1875 C-2.59132812 9.47980469 -2.05765625 8.77210938 -1.5078125 8.04296875 C-0.29185219 6.39543703 0.86416141 4.70375789 2 3 C1.34 2.01 0.68 1.02 0 0 Z " fill="#4489BD" transform="translate(211,125)"/>
<path d="M0 0 C10.77015485 1.13286073 19.42476241 9.80735016 27 17 C26.67 17.66 26.34 18.32 26 19 C25.56171875 18.5875 25.1234375 18.175 24.671875 17.75 C14.49592913 8.25891446 14.49592913 8.25891446 2 3 C2 2.34 2 1.68 2 1 C1.34 0.67 0.68 0.34 0 0 Z " fill="#477AA6" transform="translate(181,24)"/>
<path d="M0 0 C3.04763226 2.67620208 4.95056656 5.98967494 7 9.4375 C9.69361297 13.97365291 9.69361297 13.97365291 12.8125 18.22265625 C13.204375 18.80917969 13.59625 19.39570313 14 20 C13.67 20.99 13.34 21.98 13 23 C0 5.74193548 0 5.74193548 0 0 Z " fill="#426C99" transform="translate(23,180)"/>
<path d="M0 0 C2.52845528 1.26422764 2.76422764 2.52845528 4 5 C4.66 5.33 5.32 5.66 6 6 C6.144375 6.78375 6.28875 7.5675 6.4375 8.375 C7.05384083 11.25125721 7.77728856 12.16384707 10 14 C9.34 15.32 8.68 16.64 8 18 C8 17.34 8 16.68 8 16 C7.01 16 6.02 16 5 16 C4.15787744 14.08717875 3.32661136 12.16957527 2.5 10.25 C2.0359375 9.18265625 1.571875 8.1153125 1.09375 7.015625 C0 4 0 4 0 0 Z " fill="#3C70A7" transform="translate(156,132)"/>
<path d="M0 0 C1.23556641 0.01740234 1.23556641 0.01740234 2.49609375 0.03515625 C3.32238281 0.04417969 4.14867187 0.05320313 5 0.0625 C5.63808594 0.07410156 6.27617187 0.08570313 6.93359375 0.09765625 C5.93359375 2.09765625 5.93359375 2.09765625 4.05859375 2.84765625 C1.93359375 3.09765625 1.93359375 3.09765625 -1.06640625 1.09765625 C-1.37578125 2.04640625 -1.68515625 2.99515625 -2.00390625 3.97265625 C-3.06640625 7.09765625 -3.06640625 7.09765625 -4.06640625 9.09765625 C-8.02640625 9.09765625 -11.98640625 9.09765625 -16.06640625 9.09765625 C-16.06640625 8.76765625 -16.06640625 8.43765625 -16.06640625 8.09765625 C-15.37933594 8.09507812 -14.69226563 8.0925 -13.984375 8.08984375 C-11.22781258 7.97153635 -8.74279553 7.77970384 -6.06640625 7.09765625 C-3.8881156 4.24513091 -3.8881156 4.24513091 -3.06640625 1.09765625 C-2.06640625 0.09765625 -2.06640625 0.09765625 0 0 Z " fill="#45769E" transform="translate(140.06640625,155.90234375)"/>
<path d="M0 0 C2.31 0.33 4.62 0.66 7 1 C7.66 2.98 8.32 4.96 9 7 C12.3 7.66 15.6 8.32 19 9 C19 9.33 19 9.66 19 10 C9.94470046 10.62211982 9.94470046 10.62211982 6.4375 8.3125 C4.89048119 5.82381756 4.32211992 3.89907925 4 1 C2.68 0.67 1.36 0.34 0 0 Z " fill="#496E9A" transform="translate(91,149)"/>
<path d="M0 0 C0 0.66 0 1.32 0 2 C-2.5546875 3.7265625 -2.5546875 3.7265625 -5.875 5.625 C-6.96554688 6.25664062 -8.05609375 6.88828125 -9.1796875 7.5390625 C-12 9 -12 9 -14 9 C-14 9.66 -14 10.32 -14 11 C-15.32 11.33 -16.64 11.66 -18 12 C-16.52922378 7.46510665 -12.94703573 5.88995913 -9 3.75 C-8.03707031 3.20472656 -8.03707031 3.20472656 -7.0546875 2.6484375 C-2.29546523 0 -2.29546523 0 0 0 Z " fill="#4C7FAA" transform="translate(78,21)"/>
<path d="M0 0 C0.92941406 0.48082031 1.85882813 0.96164063 2.81640625 1.45703125 C7.73719873 3.56594231 12.65038399 3.56101397 17.9375 3.6875 C18.90751953 3.72166016 19.87753906 3.75582031 20.87695312 3.79101562 C23.25118637 3.87288574 25.62507877 3.94223078 28 4 C28 4.33 28 4.66 28 5 C24.75099666 5.22644569 21.50090961 5.42797517 18.25 5.625 C17.32960938 5.68945312 16.40921875 5.75390625 15.4609375 5.8203125 C14.12675781 5.89765625 14.12675781 5.89765625 12.765625 5.9765625 C11.94868164 6.02893066 11.13173828 6.08129883 10.29003906 6.13525391 C7.7097913 5.98285974 6.26051852 5.19746073 4 4 C0.83304044 3.83275263 0.83304044 3.83275263 -2 4 C-1.34 2.68 -0.68 1.36 0 0 Z " fill="#3670A4" transform="translate(86,162)"/>
<path d="M0 0 C0.99 0 1.98 0 3 0 C3 0.66 3 1.32 3 2 C-0.7367843 4.49118953 -2.74451819 4.2065226 -7.1875 4.125 C-8.45980469 4.10695312 -9.73210937 4.08890625 -11.04296875 4.0703125 C-12.50669922 4.03550781 -12.50669922 4.03550781 -14 4 C-13.67 3.01 -13.34 2.02 -13 1 C-11.71802734 1.01740234 -11.71802734 1.01740234 -10.41015625 1.03515625 C-8.75306641 1.04869141 -8.75306641 1.04869141 -7.0625 1.0625 C-5.40927734 1.07990234 -5.40927734 1.07990234 -3.72265625 1.09765625 C-1.08552366 1.31262571 -1.08552366 1.31262571 0 0 Z " fill="#4677A2" transform="translate(185,162)"/>
<path d="M0 0 C3.3 0.66 6.6 1.32 10 2 C10 2.33 10 2.66 10 3 C9.38511719 3.03738281 8.77023438 3.07476562 8.13671875 3.11328125 C6.92435547 3.21189453 6.92435547 3.21189453 5.6875 3.3125 C4.88699219 3.37050781 4.08648437 3.42851562 3.26171875 3.48828125 C0.61257517 4.0876557 -0.20473841 5.03626811 -2 7 C-2.66 7 -3.32 7 -4 7 C-3.67 5.68 -3.34 4.36 -3 3 C-2.34 3 -1.68 3 -1 3 C-0.67 2.01 -0.34 1.02 0 0 Z " fill="#3A85B0" transform="translate(59,155)"/>
<path d="M0 0 C2.09749995 2.35968744 2.96905704 3.54616994 3.1875 6.75 C3.125625 7.4925 3.06375 8.235 3 9 C1.02 9 -0.96 9 -3 9 C-2.01 6.03 -1.02 3.06 0 0 Z " fill="#3E86B8" transform="translate(146,139)"/>
<path d="M0 0 C3.79724588 2.84793441 6.76284676 5.87867847 9.75 9.5625 C10.52859375 10.51253906 11.3071875 11.46257813 12.109375 12.44140625 C14 15 14 15 15 18 C14.34 18 13.68 18 13 18 C10 14.53846154 10 14.53846154 10 12 C9.34 12 8.68 12 8 12 C6.0546875 9.8828125 6.0546875 9.8828125 3.875 7.125 C3.15054688 6.22007813 2.42609375 5.31515625 1.6796875 4.3828125 C0 2 0 2 0 0 Z " fill="#4A789F" transform="translate(209,42)"/>
<path d="M0 0 C4.60189864 1.15047466 5.44200928 2.16301393 8 6 C8 6.99 8 7.98 8 9 C3.71 9 -0.58 9 -5 9 C-5 8.67 -5 8.34 -5 8 C-1.7 8 1.6 8 5 8 C2.525 4.04 2.525 4.04 0 0 Z " fill="#4D799D" transform="translate(208,156)"/>
<path d="M0 0 C2 1 2 1 3.125 3.375 C4 6 4 6 4 9 C2.02 9 0.04 9 -2 9 C-1.51421457 5.87709365 -1.0013988 3.00419641 0 0 Z " fill="#3C81B7" transform="translate(63,139)"/>
<path d="M0 0 C0.66 0.33 1.32 0.66 2 1 C1.4225 1.62648437 0.845 2.25296875 0.25 2.8984375 C-0.4925 3.71570312 -1.235 4.53296875 -2 5.375 C-2.7425 6.18710937 -3.485 6.99921875 -4.25 7.8359375 C-6.20959813 9.79533992 -6.20959813 9.79533992 -6 12 C-7.875 14.125 -7.875 14.125 -10 16 C-10.66 16 -11.32 16 -12 16 C-10.53809273 12.80707814 -8.73158625 10.19433866 -6.5625 7.4375 C-5.96566406 6.67308594 -5.36882813 5.90867187 -4.75390625 5.12109375 C-3.24800362 3.2999242 -1.70535708 1.63234485 0 0 Z " fill="#4978A0" transform="translate(41,48)"/>
<path d="M0 0 C2.31 0 4.62 0 7 0 C6.04578192 1.14926266 5.08647955 2.29430541 4.125 3.4375 C3.59132812 4.07558594 3.05765625 4.71367187 2.5078125 5.37109375 C1 7 1 7 -1 8 C-1.66 7.34 -2.32 6.68 -3 6 C-2.34 6 -1.68 6 -1 6 C-1.33 5.01 -1.66 4.02 -2 3 C-1.34 3 -0.68 3 0 3 C0 2.01 0 1.02 0 0 Z " fill="#4588BD" transform="translate(210,203)"/>
<path d="M0 0 C0.66 0 1.32 0 2 0 C2 0.66 2 1.32 2 2 C2.66 2 3.32 2 4 2 C4.33 1.34 4.66 0.68 5 0 C5.86625 1.423125 5.86625 1.423125 6.75 2.875 C8.82816551 5.76134098 9.75468075 6.84095741 13 8 C9.23375329 9.25541557 7.62811066 8.37061958 4 7 C4 6.34 4 5.68 4 5 C3.34 5 2.68 5 2 5 C1.34 3.35 0.68 1.7 0 0 Z " fill="#40638C" transform="translate(83,157)"/>
<path d="M0 0 C2 3 2 3 3 5 C4.89533342 5.46523063 4.89533342 5.46523063 7.0625 5.625 C8.361875 5.74875 9.66125 5.8725 11 6 C7.35969312 8.3297964 4.24881273 8.3862557 0 8 C-1.9375 6.5 -1.9375 6.5 -3 5 C-2.01 3.35 -1.02 1.7 0 0 Z " fill="#4188BE" transform="translate(155,160)"/>
<path d="M0 0 C0.99 0.33 1.98 0.66 3 1 C1.625 2.5 1.625 2.5 0 4 C-0.66 4 -1.32 4 -2 4 C-2 4.66 -2 5.32 -2 6 C-3.75 7.5078125 -3.75 7.5078125 -6 9.125 C-6.7425 9.66382813 -7.485 10.20265625 -8.25 10.7578125 C-8.8275 11.16773438 -9.405 11.57765625 -10 12 C-9.49452628 7.91944849 -7.49911118 6.33727705 -4.4375 3.75 C-3.61121094 3.04359375 -2.78492188 2.3371875 -1.93359375 1.609375 C-1.29550781 1.07828125 -0.65742187 0.5471875 0 0 Z " fill="#4A78A3" transform="translate(54,35)"/>
<path d="M0 0 C4.13621084 3.3810038 7.81316569 6.66590534 11 11 C8 11 8 11 5.95703125 9.35546875 C5.24933594 8.64003906 4.54164062 7.92460938 3.8125 7.1875 C2.73935547 6.12595703 2.73935547 6.12595703 1.64453125 5.04296875 C0 3 0 3 0 0 Z " fill="#3A5A9B" transform="translate(120,109)"/>
<path d="M0 0 C0.66 0 1.32 0 2 0 C1.69128878 1.79232337 1.37790936 3.58384321 1.0625 5.375 C0.88847656 6.37273437 0.71445312 7.37046875 0.53515625 8.3984375 C0 11 0 11 -1 13 C-1.66 13 -2.32 13 -3 13 C-2.52060632 8.28596212 -2.03165952 4.33420699 0 0 Z " fill="#467FA7" transform="translate(16,89)"/>
<path d="M0 0 C0.99 0 1.98 0 3 0 C3 0.66 3 1.32 3 2 C2.01 2.495 2.01 2.495 1 3 C-0.03291676 4.98320018 -1.0337499 6.98347806 -2 9 C-3 10 -3 10 -5.5625 10.0625 C-6.366875 10.041875 -7.17125 10.02125 -8 10 C-7.236875 9.46375 -6.47375 8.9275 -5.6875 8.375 C-2.77135526 5.79794186 -1.5294378 3.54185596 0 0 Z " fill="#426D93" transform="translate(55,156)"/>
<path d="M0 0 C0.66 0 1.32 0 2 0 C3.65 4.29 5.3 8.58 7 13 C6.34 13.66 5.68 14.32 5 15 C4.16260219 12.8765984 3.33019717 10.7512272 2.5 8.625 C1.80390625 6.84996094 1.80390625 6.84996094 1.09375 5.0390625 C0 2 0 2 0 0 Z " fill="#3C6597" transform="translate(234,79)"/>
<path d="M0 0 C5.41390868 0.46671627 9.20517932 1.24297811 14 4 C13.67 4.66 13.34 5.32 13 6 C11.39253944 5.57476184 9.78910164 5.13429874 8.1875 4.6875 C7.29417969 4.44386719 6.40085938 4.20023438 5.48046875 3.94921875 C2.94752262 2.9799181 1.7283504 2.04990396 0 0 Z " fill="#4A7EAA" transform="translate(165,17)"/>
<path d="M0 0 C2.625 0.9375 2.625 0.9375 5 2 C2.47043472 5.0916909 -0.22454612 5.90931332 -4 7 C-3.67 6.01 -3.34 5.02 -3 4 C-2.34 4 -1.68 4 -1 4 C-1.33 3.01 -1.66 2.02 -2 1 C-1.34 0.67 -0.68 0.34 0 0 Z " fill="#438ABD" transform="translate(183,225)"/>
<path d="M0 0 C0.99 0.66 1.98 1.32 3 2 C6.19806665 2.4603764 6.19806665 2.4603764 9.6875 2.625 C11.45673828 2.73714844 11.45673828 2.73714844 13.26171875 2.8515625 C14.61716797 2.92503906 14.61716797 2.92503906 16 3 C12.12179254 5.12076269 9.45675283 5.37769092 5 5 C2.536513 4.17084971 0.3437425 3.14795551 -2 2 C-1.34 1.34 -0.68 0.68 0 0 Z " fill="#4889BC" transform="translate(199,163)"/>
<path d="M0 0 C3.3 0 6.6 0 10 0 C7.25604436 2.94721162 4.61662784 5.19168608 1 7 C0.34 6.67 -0.32 6.34 -1 6 C0.32 4.35 1.64 2.7 3 1 C2.01 0.67 1.02 0.34 0 0 Z " fill="#2F5E8B" transform="translate(114,107)"/>
<path d="M0 0 C0.99 0.33 1.98 0.66 3 1 C-1.455 4.465 -1.455 4.465 -6 8 C-7.24546405 5.50907189 -6.7767578 4.58919267 -6 2 C-4.35 2.33 -2.7 2.66 -1 3 C-0.67 2.01 -0.34 1.02 0 0 Z " fill="#4887B9" transform="translate(199,217)"/>
<path d="M0 0 C0.66 1.65 1.32 3.3 2 5 C-1.375 5.125 -1.375 5.125 -5 5 C-5.66 4.34 -6.32 3.68 -7 3 C-2.25 0 -2.25 0 0 0 Z " fill="#438ABA" transform="translate(122,163)"/>
<path d="M0 0 C0.66 0 1.32 0 2 0 C2 0.66 2 1.32 2 2 C2.66 2 3.32 2 4 2 C4.99 4.97 5.98 7.94 7 11 C6.34 11.66 5.68 12.32 5 13 C3.35 8.71 1.7 4.42 0 0 Z " fill="#457397" transform="translate(162,148)"/>
<path d="M0 0 C0.66 1.32 1.32 2.64 2 4 C1.01 5.32 0.02 6.64 -1 8 C-1.33 7.01 -1.66 6.02 -2 5 C-2.66 4.67 -3.32 4.34 -4 4 C-3.67 3.01 -3.34 2.02 -3 1 C-2.01 0.67 -1.02 0.34 0 0 Z " fill="#4189BD" transform="translate(205,141)"/>
<path d="M0 0 C4.2742558 1.5830577 6.26531794 4.50568404 9 8 C4.75153925 7.52794881 2.73180712 5.11122478 0 2 C0 1.34 0 0.68 0 0 Z " fill="#436692" transform="translate(76,132)"/>
<path d="M0 0 C0.66 0 1.32 0 2 0 C0.4169423 4.2742558 -2.50568404 6.26531794 -6 9 C-6.66 8.67 -7.32 8.34 -8 8 C-7.50628906 7.59007812 -7.01257813 7.18015625 -6.50390625 6.7578125 C-5.86324219 6.21898437 -5.22257813 5.68015625 -4.5625 5.125 C-3.92441406 4.59132812 -3.28632813 4.05765625 -2.62890625 3.5078125 C-0.89194996 2.0777243 -0.89194996 2.0777243 0 0 Z " fill="#2F5280" transform="translate(206,213)"/>
<path d="M0 0 C0.66 0.66 1.32 1.32 2 2 C0.35 4.31 -1.3 6.62 -3 9 C-3.99 8.67 -4.98 8.34 -6 8 C-4.02 5.36 -2.04 2.72 0 0 Z " fill="#374F8D" transform="translate(225,192)"/>
<path d="M0 0 C3.3566285 2.23775234 3.57996014 2.93320048 4.6875 6.625 C4.93886719 7.44226563 5.19023438 8.25953125 5.44921875 9.1015625 C5.72185547 10.04128906 5.72185547 10.04128906 6 11 C5.01 10.67 4.02 10.34 3 10 C1.25327015 6.5065403 0 3.93154432 0 0 Z " fill="#38668E" transform="translate(70,125)"/>
<path d="M0 0 C0.66 0.66 1.32 1.32 2 2 C4.60280568 1.67958603 4.60280568 1.67958603 7 1 C7 1.99 7 2.98 7 4 C5.824375 4.2165625 5.824375 4.2165625 4.625 4.4375 C2.03578982 4.87798925 2.03578982 4.87798925 0 6 C0 4.02 0 2.04 0 0 Z " fill="#2E5797" transform="translate(96,125)"/>
<path d="M0 0 C4.29 0 8.58 0 13 0 C13.33 0.99 13.66 1.98 14 3 C13.01 3.495 13.01 3.495 12 4 C11.01 3.34 10.02 2.68 9 2 C6.72087062 1.54605448 6.72087062 1.54605448 4.3125 1.375 C3.50425781 1.30023438 2.69601563 1.22546875 1.86328125 1.1484375 C1.24839844 1.09945312 0.63351563 1.05046875 0 1 C0 0.67 0 0.34 0 0 Z " fill="#4E86BA" transform="translate(173,123)"/>
<path d="M0 0 C0.99 0.33 1.98 0.66 3 1 C3.33 2.98 3.66 4.96 4 7 C1.37812506 5.95125002 0.20628639 5.35068687 -1.25 2.875 C-1.4975 2.25625 -1.745 1.6375 -2 1 C-1.34 0.67 -0.68 0.34 0 0 Z " fill="#4589BD" transform="translate(212,154)"/>
<path d="M0 0 C1 3 1 3 -0.4375 6.1875 C-1.2109375 7.5796875 -1.2109375 7.5796875 -2 9 C-2.33 9 -2.66 9 -3 9 C-2.25 2.25 -2.25 2.25 0 0 Z " fill="#4D84BA" transform="translate(235,170)"/>
<path d="M0 0 C0.66 0.66 1.32 1.32 2 2 C1.0409375 2.6496875 1.0409375 2.6496875 0.0625 3.3125 C-2.26746003 4.91239177 -2.26746003 4.91239177 -3 8 C-3.66 7.67 -4.32 7.34 -5 7 C-5 6.01 -5 5.02 -5 4 C-2.5 1.8125 -2.5 1.8125 0 0 Z " fill="#3874A5" transform="translate(110,127)"/>
<path d="M0 0 C0.66 0 1.32 0 2 0 C1.61402985 2.79828356 1.19863427 3.8205884 -0.9375 5.75 C-3 7 -3 7 -5 7 C-5 6.34 -5 5.68 -5 5 C-4.01 4.67 -3.02 4.34 -2 4 C-0.79117904 1.99983534 -0.79117904 1.99983534 0 0 Z " fill="#3A6BA3" transform="translate(197,128)"/>
</svg>
