<?xml version="1.0" encoding="UTF-8"?>
<svg version="1.1" xmlns="http://www.w3.org/2000/svg" width="225" height="225">
<path d="M0 0 C74.25 0 148.5 0 225 0 C225 74.25 225 148.5 225 225 C150.75 225 76.5 225 0 225 C0 150.75 0 76.5 0 0 Z " fill="#212121" transform="translate(0,0)"/>
<path d="M0 0 C0.33 0 0.66 0 1 0 C1 35.31 1 70.62 1 107 C-32.66 107 -66.32 107 -101 107 C-101 106.67 -101 106.34 -101 106 C-99.77667969 105.79246094 -98.55335937 105.58492188 -97.29296875 105.37109375 C-67.22304081 99.99168027 -39.55686293 86.47937963 -21.25 61.125 C-20.14349202 59.43158511 -19.06144812 57.72201678 -18 56 C-17.34386719 54.96488281 -16.68773437 53.92976563 -16.01171875 52.86328125 C-6.17744791 36.86780843 -1.1071767 18.70746845 0 0 Z " fill="#FCFCFC" transform="translate(224,118)"/>
<path d="M0 0 C0.33 0 0.66 0 1 0 C1.07476562 0.99515625 1.14953125 1.9903125 1.2265625 3.015625 C3.97343933 34.02523042 17.80619439 60.42641511 41 81 C44.20280814 83.59938052 47.48290723 85.85066553 51 88 C51.87398437 88.56847656 52.74796875 89.13695312 53.6484375 89.72265625 C68.79041027 99.1604612 86.20540985 104.83511712 104 106 C104 106.33 104 106.66 104 107 C69.68 107 35.36 107 0 107 C0 71.69 0 36.38 0 0 Z " fill="#FCFCFC" transform="translate(0,118)"/>
<path d="M0 0 C34.65 0 69.3 0 105 0 C105 33.99 105 67.98 105 103 C104.67 103 104.34 103 104 103 C103.86464844 101.84886719 103.72929687 100.69773437 103.58984375 99.51171875 C100.64052003 76.83368063 92.06804971 56.33149065 77 39 C76.52304688 38.3915625 76.04609375 37.783125 75.5546875 37.15625 C58.22874764 15.37506846 29.4909937 4.47790284 2.75390625 1.296875 C1.84511719 1.19890625 0.93632813 1.1009375 0 1 C0 0.67 0 0.34 0 0 Z " fill="#FDFDFD" transform="translate(120,0)"/>
<path d="M0 0 C33.33 0 66.66 0 101 0 C101 0.33 101 0.66 101 1 C99.48986328 1.20302734 99.48986328 1.20302734 97.94921875 1.41015625 C75.26569037 4.75874214 55.23170136 13.90422142 38 29 C37.16597656 29.64066406 36.33195312 30.28132813 35.47265625 30.94140625 C30.97330255 34.68731368 27.57924372 39.39458278 24 44 C23.38769531 44.78503906 22.77539062 45.57007813 22.14453125 46.37890625 C10.17912566 62.56095363 3.93554852 81.28647901 1 101 C0.67 101 0.34 101 0 101 C0 67.67 0 34.34 0 0 Z " fill="#FDFDFD" transform="translate(0,0)"/>
<path d="M0 0 C9.9 0 19.8 0 30 0 C30 0.99 30 1.98 30 3 C21.09 3 12.18 3 3 3 C3 8.61 3 14.22 3 20 C11.58 20 20.16 20 29 20 C29 20.99 29 21.98 29 23 C20.42 23 11.84 23 3 23 C3 28.94 3 34.88 3 41 C19.31790174 42.62905655 19.31790174 42.62905655 33.796875 37.26171875 C36.08831576 34.4436999 37.66890126 31.3812968 39 28 C35.01298 21.8875389 35.01298 21.8875389 30.625 16.0625 C29 14 29 14 29 12 C30.32 12 31.64 12 33 12 C35.140625 14.40625 35.140625 14.40625 37.25 17.5 C37.95640625 18.5209375 38.6628125 19.541875 39.390625 20.59375 C39.92171875 21.3878125 40.4528125 22.181875 41 23 C44.61657796 21.79447401 45.38295562 20.51483415 47.625 17.5 C51 13 51 13 52 12 C54.67058851 11.85884839 57.32432238 11.95752893 60 12 C60.495 13.485 60.495 13.485 61 15 C61.845625 14.34 62.69125 13.68 63.5625 13 C67.57882208 10.66323079 69.42778477 10.35828558 74 11 C79.37693593 13.18722817 82.03875576 15.43783128 84.34375 20.79296875 C86.13465697 26.81595944 85.39468622 32.53032151 82.9921875 38.2734375 C81.09974738 41.56658133 78.321535 43.3392325 75 45 C73.01171875 45.203125 73.01171875 45.203125 70.6875 45.25 C69.54861328 45.28867188 69.54861328 45.28867188 68.38671875 45.328125 C66 45 66 45 61 42 C60.67 46.29 60.34 50.58 60 55 C58.68 55 57.36 55 56 55 C56 51.7 56 48.4 56 45 C54.68 44.67 53.36 44.34 52 44 C50.27105302 42.00484099 48.75742499 40.08570336 47.25 37.9375 C46.83878906 37.36966797 46.42757812 36.80183594 46.00390625 36.21679688 C44.99304964 34.81805343 43.99522794 33.40990625 43 32 C39.04025484 33.31991505 38.84190535 34.93258889 36.84375 38.51953125 C34.17461798 42.29652416 32.89178815 43.77908192 28.3515625 44.90380859 C24.05123309 45.21163733 19.80044294 44.95703664 15.5 44.6875 C10.385 44.460625 5.27 44.23375 0 44 C0 29.48 0 14.96 0 0 Z " fill="#E0E0E0" transform="translate(20,85)"/>
<path d="M0 0 C9.9 0 19.8 0 30 0 C30 0.99 30 1.98 30 3 C21.09 3 12.18 3 3 3 C3 8.61 3 14.22 3 20 C11.58 20 20.16 20 29 20 C29 20.99 29 21.98 29 23 C20.42 23 11.84 23 3 23 C3 28.94 3 34.88 3 41 C19.31790174 42.62905655 19.31790174 42.62905655 33.796875 37.26171875 C36.08831576 34.4436999 37.66890126 31.3812968 39 28 C35.01298 21.8875389 35.01298 21.8875389 30.625 16.0625 C29 14 29 14 29 12 C30.32 12 31.64 12 33 12 C35.140625 14.40625 35.140625 14.40625 37.25 17.5 C37.95640625 18.5209375 38.6628125 19.541875 39.390625 20.59375 C39.92171875 21.3878125 40.4528125 22.181875 41 23 C45.27765857 21.57411381 46.64026852 18.62718187 49.18359375 15.03125 C51.1438547 12.83913023 52.13262357 12.35290787 55 12 C53.37815499 15.58513106 51.20743761 18.58992323 48.875 21.75 C48.15054688 22.73484375 47.42609375 23.7196875 46.6796875 24.734375 C45.84824219 25.85585937 45.84824219 25.85585937 45 27 C47.18882424 30.77693016 49.6028931 34.29573979 52.1875 37.8125 C52.90292969 38.78832031 53.61835937 39.76414063 54.35546875 40.76953125 C54.89816406 41.50558594 55.44085938 42.24164063 56 43 C54.02 43.495 54.02 43.495 52 44 C49.03 40.04 46.06 36.08 43 32 C39.04025484 33.31991505 38.84190535 34.93258889 36.84375 38.51953125 C34.17461798 42.29652416 32.89178815 43.77908192 28.3515625 44.90380859 C24.05123309 45.21163733 19.80044294 44.95703664 15.5 44.6875 C10.385 44.460625 5.27 44.23375 0 44 C0 29.48 0 14.96 0 0 Z " fill="#F2F2F2" transform="translate(20,85)"/>
<path d="M0 0 C3.42282723 2.33374584 4.94672394 4.12973434 6.75 7.875 C6.75 10.845 6.75 13.815 6.75 16.875 C-1.5 16.875 -9.75 16.875 -18.25 16.875 C-16.11078558 25.07261991 -16.11078558 25.07261991 -13.5625 27.9375 C-9.39213549 29.62818832 -5.26137012 29.36425219 -0.9375 28.3125 C1.76346246 26.01168013 2.52768635 23.17524686 3.75 19.875 C4.74 19.875 5.73 19.875 6.75 19.875 C6.29786421 24.73545979 5.21858739 27.40641261 1.75 30.875 C-2.54066891 33.44940135 -7.38383364 33.56158432 -12.25 32.875 C-15.82444856 31.15396921 -17.71966849 29.56443097 -20.125 26.4375 C-22.06843796 20.28327979 -22.61477773 13.49194181 -20.30078125 7.359375 C-15.53637951 -0.75664058 -8.90329757 -3.0819107 0 0 Z " fill="#ECECEC" transform="translate(143.25,97.125)"/>
<path d="M0 0 C4.13850174 3.20945033 5.23282995 5.74998769 6 10.875 C6.24983151 15.74671436 5.58845971 19.81632675 3 24 C0.14468089 26.53806143 -1.65822504 26.95028728 -5.4375 27.5 C-10.19197325 26.83270551 -11.67221155 25.40702151 -15 22 C-16.74099415 16.77701755 -17.22988568 10.11260167 -15.17578125 4.9140625 C-11.39642912 -0.84628833 -6.42249843 -1.01992507 0 0 Z " fill="#212121" transform="translate(96,100)"/>
<path d="M0 0 C2.48251668 0.47740705 4.31778607 1.17051936 6.5625 2.375 C10.50190924 4.23726619 14.38576155 5.23262267 18.609375 6.25390625 C21 7 21 7 23 9 C22.625 12.625 22.625 12.625 22 16 C17.25270458 18.30171899 12.7728495 18.89930254 7.6875 17.25 C5.58180211 15.69022379 4.86967498 14.46407912 4 12 C4 10.68 4 9.36 4 8 C3.01 8 2.02 8 1 8 C1 9.98 1 11.96 1 14 C0.34 13.34 -0.32 12.68 -1 12 C-1 10.68 -1 9.36 -1 8 C-1.99 8 -2.98 8 -4 8 C-4.0825 8.7425 -4.165 9.485 -4.25 10.25 C-5.14910403 13.54671477 -6.42369934 14.81404792 -9 17 C-12.20173254 18.60086627 -15.52577059 18.49917089 -19 18 C-21.8100346 16.20636089 -23.50940468 14.98119065 -25 12 C-25 10.02 -25 8.04 -25 6 C-16.75 6 -8.5 6 0 6 C0 4.02 0 2.04 0 0 Z " fill="#1F1F1F" transform="translate(151,109)"/>
<path d="M0 0 C5.46341463 2.92682927 5.46341463 2.92682927 7 6 C7.039992 7.99960012 7.04346799 10.00047242 7 12 C6.01 12 5.02 12 4 12 C3.690625 11.030625 3.38125 10.06125 3.0625 9.0625 C2.30476658 6.15934208 2.30476658 6.15934208 1 5 C-0.80927281 4.87512242 -2.62396107 4.82429154 -4.4375 4.8125 C-5.42621094 4.79832031 -6.41492188 4.78414063 -7.43359375 4.76953125 C-10.16584415 4.73849247 -10.16584415 4.73849247 -12 7 C-11.67958603 9.60280568 -11.67958603 9.60280568 -11 12 C-10.43152344 12.18175781 -9.86304688 12.36351563 -9.27734375 12.55078125 C5.95361411 17.50910643 5.95361411 17.50910643 8 21 C8.64383941 26.07023535 8.64383941 26.07023535 8 29 C4.20866776 32.99626912 0.57974703 34.15964144 -4.8125 34.375 C-8.53321716 34.35324142 -10.67100025 34.01118912 -13.5625 31.625 C-17.06976474 27.84794567 -17.11006997 26.06321848 -17 21 C-16.01 21 -15.02 21 -14 21 C-13.34 23.64 -12.68 26.28 -12 29 C-6.47185483 30.38203629 -1.5346878 30.3417425 4 29 C4 26.69 4 24.38 4 22 C-0.2481659 20.37797302 -4.45517513 18.86255431 -8.8125 17.5625 C-11.49358979 16.66572169 -12.91287279 16.07656634 -15.0625 14.1875 C-16.36450609 11.14948579 -16.53487984 9.27613904 -16 6 C-11.1216875 0.22305099 -7.34445731 -0.92421862 0 0 Z " fill="#EAEAEA" transform="translate(169,96)"/>
<path d="M0 0 C3.67645004 1.59845654 6.03535341 3.48431663 8 7 C8.1875 9.75 8.1875 9.75 8 12 C7.01 12 6.02 12 5 12 C4.71125 11.030625 4.4225 10.06125 4.125 9.0625 C3.35785318 5.89335797 3.35785318 5.89335797 1 5 C-1.04055005 4.92934383 -3.08334257 4.91578024 -5.125 4.9375 C-6.22070312 4.94652344 -7.31640625 4.95554687 -8.4453125 4.96484375 C-9.70988281 4.98224609 -9.70988281 4.98224609 -11 5 C-11 7.31 -11 9.62 -11 12 C-9.21142578 12.58007812 -9.21142578 12.58007812 -7.38671875 13.171875 C-5.82007732 13.69721584 -4.25368377 14.22329632 -2.6875 14.75 C-1.90181641 15.00265625 -1.11613281 15.2553125 -0.30664062 15.515625 C7.00655064 18.00522202 7.00655064 18.00522202 9 22 C9.5 24.9375 9.5 24.9375 9 28 C6.19153723 31.32581118 4.03930074 33.79673636 -0.390625 34.23828125 C-6.6279497 34.40017902 -10.28030217 34.22288753 -15 30 C-16.4783226 27.04335481 -16.06032783 24.25770263 -16 21 C-15.01 21 -14.02 21 -13 21 C-12.731875 22.11375 -12.46375 23.2275 -12.1875 24.375 C-11.34190981 28.21840951 -11.34190981 28.21840951 -8 30 C-4.2737751 30.23658571 -1.18326684 30.27306158 2.4375 29.4375 C4.98749255 27.09150686 4.75432465 24.31661719 5 21 C4.20335937 20.81824219 3.40671875 20.63648437 2.5859375 20.44921875 C-10.70334928 17.29665072 -10.70334928 17.29665072 -15 13 C-15.40463534 9.91465557 -15.6285158 7.96138528 -15 5 C-10.73391311 -0.25056848 -6.58919851 -1.12052914 0 0 Z " fill="#EAEAEA" transform="translate(196,96)"/>
<path d="M0 0 C3 1.5625 3 1.5625 5 4 C5.33 6.31 5.66 8.62 6 11 C-1.26 11 -8.52 11 -16 11 C-14 4 -14 4 -11.9375 1.5625 C-7.8739038 -0.59898734 -4.50936559 -0.79240663 0 0 Z " fill="#1C1C1C" transform="translate(141,100)"/>
<path d="M0 0 C0.33 0 0.66 0 1 0 C1 9.57 1 19.14 1 29 C-2.28674376 25.71325624 -5.04776903 22.81959755 -7.8125 19.1875 C-8.41707031 18.39730469 -9.02164063 17.60710937 -9.64453125 16.79296875 C-10.09183594 16.20128906 -10.53914063 15.60960938 -11 15 C-7.59994725 9.74218646 -4.1874627 4.66602987 0 0 Z " fill="#1C1C1C" transform="translate(75,98)"/>
<path d="M0 0 C0 1.32 0 2.64 0 4 C-0.62648438 4.09796875 -1.25296875 4.1959375 -1.8984375 4.296875 C-2.71570313 4.44640625 -3.53296875 4.5959375 -4.375 4.75 C-5.18710938 4.88921875 -5.99921875 5.0284375 -6.8359375 5.171875 C-9.10475995 5.79750976 -9.10475995 5.79750976 -10.109375 7.69921875 C-11.17276198 10.44630178 -11.32013512 12.69756713 -11.4140625 15.640625 C-11.45273438 16.71054688 -11.49140625 17.78046875 -11.53125 18.8828125 C-11.5621875 19.99398437 -11.593125 21.10515625 -11.625 22.25 C-11.66367188 23.37664062 -11.70234375 24.50328125 -11.7421875 25.6640625 C-11.83637336 28.44254548 -11.92199586 31.22102334 -12 34 C-13.32 34 -14.64 34 -16 34 C-16 23.11 -16 12.22 -16 1 C-15.01 1 -14.02 1 -13 1 C-12.67 1.99 -12.34 2.98 -12 4 C-11.13375 3.34 -10.2675 2.68 -9.375 2 C-5.78576537 -0.12695385 -4.07305202 -0.38790972 0 0 Z " fill="#D7D7D7" transform="translate(124,96)"/>
</svg>
